<svg width="24" height="24" viewBox="0 0 24 24" fill="none" xmlns="http://www.w3.org/2000/svg">
<path d="M13.2697 8.21189C13.2889 8.04473 13.2736 7.8754 13.2249 7.71435C13.1761 7.55331 13.0949 7.40394 12.9863 7.27547C12.8776 7.14699 12.7438 7.04212 12.5931 6.96732C12.4424 6.89252 12.2779 6.84936 12.1099 6.84052C11.9419 6.83168 11.7738 6.85734 11.616 6.91591C11.4583 6.97448 11.3142 7.06473 11.1927 7.1811C11.0712 7.29746 10.9747 7.43748 10.9093 7.59252C10.844 7.74757 10.811 7.91435 10.8126 8.08261H10.8089L11.0873 13.9555V13.965C11.0843 14.0939 11.1073 14.222 11.1549 14.3417C11.2025 14.4614 11.2738 14.5703 11.3644 14.6619C11.4551 14.7535 11.5633 14.8258 11.6825 14.8746C11.8018 14.9234 11.9297 14.9477 12.0585 14.946C12.1873 14.9442 12.3145 14.9166 12.4324 14.8646C12.5503 14.8126 12.6565 14.7373 12.7447 14.6434C12.8329 14.5494 12.9012 14.4386 12.9456 14.3177C12.99 14.1967 13.0095 14.068 13.003 13.9393L13.2704 8.21189H13.2697ZM9.03123 4.09683C10.6701 1.29812 13.3314 1.304 14.9666 4.09683L22.2917 16.6022C23.9298 19.4009 22.6311 21.6685 19.3813 21.6685H4.61646C1.37039 21.6685 0.0709394 19.3943 1.70683 16.6022L9.03123 4.09683ZM12.0452 18.894C12.2095 18.898 12.373 18.8691 12.526 18.809C12.679 18.7489 12.8185 18.6588 12.9361 18.5439C13.0538 18.4291 13.1473 18.2919 13.2111 18.1404C13.275 17.9889 13.3079 17.8262 13.3079 17.6618C13.3079 17.4974 13.275 17.3346 13.2111 17.1831C13.1473 17.0316 13.0538 16.8944 12.9361 16.7796C12.8185 16.6648 12.679 16.5747 12.526 16.5145C12.373 16.4544 12.2095 16.4255 12.0452 16.4295C11.7236 16.4374 11.4178 16.5707 11.1931 16.8009C10.9684 17.0311 10.8426 17.3401 10.8426 17.6618C10.8426 17.9835 10.9684 18.2924 11.1931 18.5227C11.4178 18.7529 11.7236 18.8862 12.0452 18.894Z" fill="#0083FF"/>
</svg>
