<svg width="217" height="270" xmlns="http://www.w3.org/2000/svg" fill="none">

 <g>
  <title>Layer 1</title>
  <rect id="svg_1" stroke-width="1.56934" stroke="#3882FF" rx="9.41606" height="267.716" width="215.001" y="0.78467" x="0.78467"/>
  <path id="svg_2" fill="#222222" d="m47.3144,13.6354l8.19,0l0,1.302l-3.332,0l0,8.694l-1.512,0l0,-8.694l-3.346,0l0,-1.302zm8.7249,0l1.862,0l2.436,3.612l2.436,-3.612l1.862,0l-3.388,4.83l3.626,5.166l-1.862,0l-2.674,-3.962l-2.674,3.962l-1.862,0l3.598,-5.166l-3.36,-4.83z"/>
  <path id="svg_5" fill="#222222" d="m151.946,13.6354l4.424,0c1.008,0 1.82,0.224 2.408,0.686c0.616,0.504 0.924,1.218 0.924,2.17c0,0.532 -0.14,0.994 -0.42,1.4c-0.322,0.448 -0.756,0.742 -1.302,0.882l0,0.028c0.896,0.196 1.386,0.784 1.498,1.764l0.168,1.596c0.056,0.616 0.252,1.106 0.588,1.47l-1.652,0c-0.238,-0.308 -0.378,-0.756 -0.434,-1.316l-0.126,-1.246c-0.056,-0.56 -0.238,-0.952 -0.532,-1.204c-0.308,-0.252 -0.742,-0.364 -1.316,-0.364l-2.702,0l0,4.13l-1.526,0l0,-9.996zm1.526,1.302l0,3.262l2.702,0c0.672,0 1.176,-0.154 1.512,-0.434c0.322,-0.28 0.49,-0.686 0.49,-1.218c0,-0.56 -0.168,-0.966 -0.476,-1.218c-0.336,-0.266 -0.84,-0.392 -1.54,-0.392l-2.688,0zm7.496,-1.302l1.862,0l2.436,3.612l2.436,-3.612l1.862,0l-3.388,4.83l3.626,5.166l-1.862,0l-2.674,-3.962l-2.674,3.962l-1.862,0l3.598,-5.166l-3.36,-4.83z"/>
  <path id="svg_9" fill="#003691" d="m22.7272,91.4839l-10.1621,0c-2.1724,-0.0001 -3.93357,-1.7611 -3.93357,-3.9336l0,-18.0293c0.00002,-2.1725 1.76117,-3.9335 3.93357,-3.9336l10.1621,0l0,25.8965zm-7.8681,-6.2276c-0.9052,0.0001 -1.6386,0.7336 -1.6387,1.6387c0,0.9052 0.7335,1.6397 1.6387,1.6397l3.2783,0l0,-3.2784l-3.2783,0zm0,-16.7177c-0.9052,0 -1.6387,0.7344 -1.6387,1.6396c0.0001,0.9052 0.7335,1.6387 1.6387,1.6387l3.2783,0l0,-3.2783l-3.2783,0z"/>
  <rect id="svg_10" stroke-width="0.78467" stroke="#3882FF" rx="3.54135" height="20.8506" width="9.37734" y="68.2744" x="27.0547"/>
  <circle id="svg_11" stroke-width="0.32781" stroke="#3075FF" r="1.14732" cy="70.1771" cx="31.9061"/>
  <circle id="svg_12" stroke-width="0.32781" stroke="#3075FF" r="1.14732" cy="87.5509" cx="31.9061"/>
  <rect id="svg_13" stroke-width="0.78467" stroke="#3882FF" height="25.1121" width="170.331" y="65.9829" x="23.1223"/>
  <rect id="svg_14" stroke-width="0.78467" stroke="#3882FF" rx="3.54135" height="20.8506" width="9.37734" y="68.2744" x="180.139"/>
  <circle id="svg_15" stroke-width="0.32781" stroke="#3075FF" r="1.14732" cy="70.1771" cx="184.991"/>
  <circle id="svg_16" stroke-width="0.32781" stroke="#3075FF" r="1.14732" cy="87.5509" cx="184.991"/>
  <path id="svg_17" fill="#003691" d="m193.844,91.4839l10.162,0c2.172,-0.0001 3.934,-1.7611 3.934,-3.9336l0,-18.0293c-0.001,-2.1725 -1.762,-3.9335 -3.934,-3.9336l-10.162,0l0,25.8965zm7.868,-6.2276c0.905,0.0001 1.639,0.7336 1.639,1.6387c0,0.9052 -0.734,1.6397 -1.639,1.6397l-3.278,0l0,-3.2784l3.278,0zm0,-16.7177c0.905,0 1.639,0.7344 1.639,1.6396c0,0.9052 -0.734,1.6387 -1.639,1.6387l-3.278,0l0,-3.2783l3.278,0z"/>
  <rect id="svg_18" stroke-width="0.78467" stroke="#3882FF" height="18.8321" width="31.3869" y="69.1185" x="115.174"/>
  <rect id="svg_19" stroke-width="0.78467" stroke="#3882FF" rx="0.65561" height="6.88394" width="25.8967" y="75.0955" x="117.921"/>
  <rect id="svg_20" fill="#3075FF" rx="0.32781" height="1.96684" width="1.96684" y="84.3334" x="118.412"/>
  <rect id="svg_21" fill="#3075FF" rx="0.32781" height="1.96684" width="1.96684" y="84.3334" x="123.002"/>
  <rect id="svg_22" fill="#3075FF" rx="0.32781" height="1.96684" width="1.96684" y="84.3334" x="127.591"/>
  <rect id="svg_23" fill="#3075FF" rx="0.32781" height="1.96684" width="1.96684" y="84.3336" x="132.18"/>
  <rect id="svg_24" fill="#3075FF" rx="0.32781" height="1.96684" width="1.96684" y="84.3334" x="136.769"/>
  <rect id="svg_25" fill="#3075FF" rx="0.32781" height="1.96684" width="1.96684" y="84.3334" x="141.359"/>
  <rect id="svg_26" stroke-width="0.32781" stroke="#3882FF" height="1.90128" width="21.6722" y="73.103" x="149.947"/>
  <rect id="svg_27" stroke-width="0.32781" stroke="#3882FF" height="1.90128" width="21.6722" y="76.0751" x="149.947"/>
  <rect id="svg_28" stroke-width="0.32781" stroke="#3882FF" height="1.90128" width="21.6722" y="79.0472" x="149.947"/>
  <rect id="svg_29" stroke-width="0.32781" stroke="#3882FF" height="1.90128" width="21.6722" y="82.0193" x="149.947"/>
  <path id="svg_30" fill="black" d="m41.9398,77.4991c-0.42,0.616 -0.882,1.218 -1.386,1.778l-0.322,-1.078c1.372,-1.694 2.366,-3.64 2.996,-5.824l0.938,0.434c-0.336,1.078 -0.742,2.086 -1.232,3.038l0,9.52l-0.994,0l0,-7.868zm2.17,-3.15l4.312,0c-0.21,-0.56 -0.448,-1.092 -0.728,-1.624l0.966,-0.266c0.294,0.616 0.518,1.176 0.686,1.694l-0.532,0.196l4.41,0l0,0.952l-9.114,0l0,-0.952zm1.288,2.086l6.622,0l0,0.91l-6.622,0l0,-0.91zm0,1.974l6.622,0l0,0.924l-6.622,0l0,-0.924zm6.874,2.072l0,4.858l-0.98,0l0,-0.756l-5.18,0l0,0.756l-0.98,0l0,-4.858l7.14,0zm-6.16,3.15l5.18,0l0,-2.212l-5.18,0l0,2.212zm12.334,-9.576l2.324,0c-0.224,-0.434 -0.476,-0.84 -0.756,-1.218l0.938,-0.35c0.308,0.448 0.602,0.966 0.854,1.568l1.652,0c0.336,-0.504 0.644,-1.036 0.896,-1.596l0.98,0.336c-0.238,0.476 -0.49,0.896 -0.77,1.26l2.38,0l0,0.938l-3.92,0c-0.098,0.392 -0.224,0.77 -0.364,1.134l3.332,0l0,6.748l-6.636,0l0,-6.748l2.24,0c0.154,-0.378 0.266,-0.756 0.35,-1.134l-3.5,0l0,-0.938zm6.594,7.924l0,-1.162l-4.732,0l0,1.162l4.732,0zm-4.732,-1.974l4.732,0l0,-1.064l-4.732,0l0,1.064zm0,-1.876l4.732,0l0,-1.106l-4.732,0l0,1.106zm-4.76,-5.404c0.966,0.728 1.778,1.456 2.436,2.184l-0.714,0.7c-0.588,-0.7 -1.386,-1.442 -2.408,-2.226l0.686,-0.658zm8.162,12.362c-0.756,0 -1.582,-0.014 -2.478,-0.028c-0.896,-0.014 -1.624,-0.098 -2.184,-0.252c-0.56,-0.168 -1.05,-0.518 -1.47,-1.022c-0.196,-0.238 -0.378,-0.35 -0.546,-0.35c-0.336,0 -0.896,0.63 -1.694,1.918l-0.756,-0.672c0.77,-1.204 1.442,-1.918 2.016,-2.142l0,-4.256l-2.058,0l0,-0.924l2.996,0l0,5.236c0.112,0.084 0.224,0.196 0.336,0.322c0.336,0.406 0.7,0.7 1.078,0.882c0.434,0.196 1.064,0.308 1.89,0.336c0.728,0.014 1.638,0.028 2.73,0.028c0.658,0 1.33,-0.014 2.016,-0.028c0.672,-0.014 1.204,-0.028 1.568,-0.056l-0.238,1.008l-3.206,0zm4.886,-9.842l2.086,0l0,-2.73l1.008,0l0,2.73l1.736,0l0,0.966l-1.736,0l0,0.714c0.644,0.672 1.302,1.414 1.974,2.24l-0.588,0.868c-0.532,-0.882 -0.994,-1.596 -1.386,-2.142l0,7.378l-1.008,0l0,-7.112c-0.49,1.4 -1.134,2.66 -1.918,3.808l-0.434,-1.092c1.078,-1.358 1.848,-2.912 2.31,-4.662l-2.044,0l0,-0.966zm4.172,9.408c0.602,-0.882 1.022,-1.82 1.26,-2.814c0.182,-0.854 0.28,-2.002 0.28,-3.444l0,-5.306l4.522,0l0,10.598c0,0.238 0.098,0.364 0.322,0.364l0.476,0c0.168,0 0.294,-0.028 0.392,-0.084c0.112,-0.084 0.182,-0.21 0.21,-0.406c0.056,-0.28 0.098,-1.078 0.098,-2.422l0.924,0.294c0,1.008 -0.042,1.764 -0.098,2.296c-0.056,0.504 -0.196,0.84 -0.42,1.036c-0.224,0.154 -0.56,0.238 -1.008,0.238l-0.574,0c-0.896,0 -1.344,-0.406 -1.344,-1.218l0,-9.744l-2.492,0l0,4.354c0,1.54 -0.126,2.828 -0.378,3.864c-0.238,1.092 -0.686,2.128 -1.344,3.136l-0.826,-0.742z"/>
  <path id="svg_31" fill="#003691" d="m22.7271,125.231l-10.1621,0c-2.1725,0 -3.93359,-1.761 -3.93359,-3.934l0,-18.029c0,-2.173 1.76109,-3.9338 3.93359,-3.9338l10.1621,0l0,25.8968zm-7.8682,-6.228c-0.9051,0 -1.6385,0.734 -1.6386,1.639c0,0.905 0.7334,1.639 1.6386,1.639l3.2784,0l0,-3.278l-3.2784,0zm0,-16.718c-0.9052,0 -1.6386,0.735 -1.6386,1.64c0.0001,0.905 0.7335,1.639 1.6386,1.639l3.2784,0l0,-3.279l-3.2784,0z"/>
  <rect id="svg_32" stroke-width="0.78467" stroke="#3882FF" rx="3.54135" height="20.8506" width="9.37734" y="102.021" x="27.0546"/>
  <circle id="svg_33" stroke-width="0.32781" stroke="#3075FF" r="1.14732" cy="103.924" cx="31.906"/>
  <circle id="svg_34" stroke-width="0.32781" stroke="#3075FF" r="1.14732" cy="121.298" cx="31.906"/>
  <rect id="svg_35" stroke-width="0.78467" stroke="#3882FF" height="25.1121" width="170.331" y="99.7277" x="23.1222"/>
  <rect id="svg_36" stroke-width="0.78467" stroke="#3882FF" rx="3.54135" height="20.8506" width="9.37734" y="102.021" x="180.139"/>
  <circle id="svg_37" stroke-width="0.32781" stroke="#3075FF" r="1.14732" cy="103.924" cx="184.991"/>
  <circle id="svg_38" stroke-width="0.32781" stroke="#3075FF" r="1.14732" cy="121.298" cx="184.991"/>
  <path id="svg_39" fill="#003691" d="m193.844,125.231l10.162,0c2.172,0 3.933,-1.761 3.933,-3.934l0,-18.029c0,-2.173 -1.761,-3.9338 -3.933,-3.9338l-10.162,0l0,25.8968zm7.868,-6.228c0.905,0 1.638,0.734 1.639,1.639c0,0.905 -0.734,1.639 -1.639,1.639l-3.278,0l0,-3.278l3.278,0zm0,-16.718c0.905,0 1.639,0.735 1.639,1.64c-0.001,0.905 -0.734,1.639 -1.639,1.639l-3.278,0l0,-3.279l3.278,0z"/>
  <rect id="svg_40" stroke-width="0.78467" stroke="#3882FF" height="18.8321" width="31.3869" y="103.33" x="115.174"/>
  <rect id="svg_41" stroke-width="0.78467" stroke="#3882FF" rx="0.65561" height="6.88394" width="25.1095" y="109.215" x="118.705"/>
  <rect id="svg_42" fill="#3075FF" rx="0.32781" height="1.96684" width="1.96684" y="118.453" x="118.705"/>
  <rect id="svg_43" fill="#3075FF" rx="0.32781" height="1.96684" width="1.96684" y="118.453" x="123.294"/>
  <rect id="svg_44" fill="#3075FF" rx="0.32781" height="1.96684" width="1.96684" y="118.453" x="127.884"/>
  <rect id="svg_45" fill="#3075FF" rx="0.32781" height="1.96684" width="1.96684" y="118.453" x="132.473"/>
  <rect id="svg_46" fill="#3075FF" rx="0.32781" height="1.96684" width="1.96684" y="118.453" x="137.062"/>
  <rect id="svg_47" fill="#3075FF" rx="0.32781" height="1.96684" width="1.96684" y="118.453" x="141.652"/>
  <rect id="svg_48" stroke-width="0.32781" stroke="#3882FF" height="1.90128" width="21.643" y="107.337" x="150.038"/>
  <rect id="svg_49" stroke-width="0.32781" stroke="#3882FF" height="1.90128" width="21.643" y="110.309" x="150.038"/>
  <rect id="svg_50" stroke-width="0.32781" stroke="#3882FF" height="1.90128" width="21.643" y="113.281" x="150.038"/>
  <rect id="svg_51" stroke-width="0.32781" stroke="#3882FF" height="1.90128" width="21.643" y="116.253" x="150.038"/>
  <path id="svg_52" fill="black" d="m40.9396,110.496c-0.42,0.616 -0.882,1.218 -1.386,1.778l-0.322,-1.078c1.372,-1.694 2.366,-3.64 2.996,-5.824l0.938,0.434c-0.336,1.078 -0.742,2.086 -1.232,3.038l0,9.52l-0.994,0l0,-7.868zm2.17,-3.15l4.312,0c-0.21,-0.56 -0.448,-1.092 -0.728,-1.624l0.966,-0.266c0.294,0.616 0.518,1.176 0.686,1.694l-0.532,0.196l4.41,0l0,0.952l-9.114,0l0,-0.952zm1.288,2.086l6.622,0l0,0.91l-6.622,0l0,-0.91zm0,1.974l6.622,0l0,0.924l-6.622,0l0,-0.924zm6.874,2.072l0,4.858l-0.98,0l0,-0.756l-5.18,0l0,0.756l-0.98,0l0,-4.858l7.14,0zm-6.16,3.15l5.18,0l0,-2.212l-5.18,0l0,2.212zm12.334,-9.576l2.324,0c-0.224,-0.434 -0.476,-0.84 -0.756,-1.218l0.938,-0.35c0.308,0.448 0.602,0.966 0.854,1.568l1.652,0c0.336,-0.504 0.644,-1.036 0.896,-1.596l0.98,0.336c-0.238,0.476 -0.49,0.896 -0.77,1.26l2.38,0l0,0.938l-3.92,0c-0.098,0.392 -0.224,0.77 -0.364,1.134l3.332,0l0,6.748l-6.636,0l0,-6.748l2.24,0c0.154,-0.378 0.266,-0.756 0.35,-1.134l-3.5,0l0,-0.938zm6.594,7.924l0,-1.162l-4.732,0l0,1.162l4.732,0zm-4.732,-1.974l4.732,0l0,-1.064l-4.732,0l0,1.064zm0,-1.876l4.732,0l0,-1.106l-4.732,0l0,1.106zm-4.76,-5.404c0.966,0.728 1.778,1.456 2.436,2.184l-0.714,0.7c-0.588,-0.7 -1.386,-1.442 -2.408,-2.226l0.686,-0.658zm8.162,12.362c-0.756,0 -1.582,-0.014 -2.478,-0.028c-0.896,-0.014 -1.624,-0.098 -2.184,-0.252c-0.56,-0.168 -1.05,-0.518 -1.47,-1.022c-0.196,-0.238 -0.378,-0.35 -0.546,-0.35c-0.336,0 -0.896,0.63 -1.694,1.918l-0.756,-0.672c0.77,-1.204 1.442,-1.918 2.016,-2.142l0,-4.256l-2.058,0l0,-0.924l2.996,0l0,5.236c0.112,0.084 0.224,0.196 0.336,0.322c0.336,0.406 0.7,0.7 1.078,0.882c0.434,0.196 1.064,0.308 1.89,0.336c0.728,0.014 1.638,0.028 2.73,0.028c0.658,0 1.33,-0.014 2.016,-0.028c0.672,-0.014 1.204,-0.028 1.568,-0.056l-0.238,1.008l-3.206,0zm4.886,-9.842l2.086,0l0,-2.73l1.008,0l0,2.73l1.736,0l0,0.966l-1.736,0l0,0.714c0.644,0.672 1.302,1.414 1.974,2.24l-0.588,0.868c-0.532,-0.882 -0.994,-1.596 -1.386,-2.142l0,7.378l-1.008,0l0,-7.112c-0.49,1.4 -1.134,2.66 -1.918,3.808l-0.434,-1.092c1.078,-1.358 1.848,-2.912 2.31,-4.662l-2.044,0l0,-0.966zm4.172,9.408c0.602,-0.882 1.022,-1.82 1.26,-2.814c0.182,-0.854 0.28,-2.002 0.28,-3.444l0,-5.306l4.522,0l0,10.598c0,0.238 0.098,0.364 0.322,0.364l0.476,0c0.168,0 0.294,-0.028 0.392,-0.084c0.112,-0.084 0.182,-0.21 0.21,-0.406c0.056,-0.28 0.098,-1.078 0.098,-2.422l0.924,0.294c0,1.008 -0.042,1.764 -0.098,2.296c-0.056,0.504 -0.196,0.84 -0.42,1.036c-0.224,0.154 -0.56,0.238 -1.008,0.238l-0.574,0c-0.896,0 -1.344,-0.406 -1.344,-1.218l0,-9.744l-2.492,0l0,4.354c0,1.54 -0.126,2.828 -0.378,3.864c-0.238,1.092 -0.686,2.128 -1.344,3.136l-0.826,-0.742z"/>
  <path id="svg_53" fill="#003691" d="m22.7271,158.976l-10.1621,0c-2.1724,0 -3.93358,-1.761 -3.93359,-3.934l0,-18.029c0,-2.172 1.76109,-3.933 3.93359,-3.933l10.1621,0l0,25.896zm-7.8682,-6.228c-0.9051,0 -1.6386,0.734 -1.6386,1.639c0,0.905 0.7334,1.639 1.6386,1.639l3.2784,0l0,-3.278l-3.2784,0zm0,-16.717c-0.9052,0 -1.6386,0.734 -1.6386,1.639c0.0001,0.905 0.7335,1.639 1.6386,1.639l3.2784,0l0,-3.278l-3.2784,0z"/>
  <rect id="svg_54" stroke-width="0.78467" stroke="#3882FF" rx="3.54135" height="20.8506" width="9.37734" y="135.766" x="27.0546"/>
  <circle id="svg_55" stroke-width="0.32781" stroke="#3075FF" r="1.14732" cy="137.669" cx="31.906"/>
  <circle id="svg_56" stroke-width="0.32781" stroke="#3075FF" r="1.14732" cy="155.043" cx="31.906"/>
  <rect id="svg_57" stroke-width="0.78467" stroke="#3882FF" height="25.1121" width="170.331" y="133.471" x="23.1222"/>
  <rect id="svg_58" stroke-width="0.78467" stroke="#3882FF" rx="3.54135" height="20.8506" width="9.37734" y="135.766" x="180.139"/>
  <circle id="svg_59" stroke-width="0.32781" stroke="#3075FF" r="1.14732" cy="137.669" cx="184.991"/>
  <circle id="svg_60" stroke-width="0.32781" stroke="#3075FF" r="1.14732" cy="155.043" cx="184.991"/>
  <path id="svg_61" fill="#003691" d="m193.844,158.976l10.162,0c2.172,0 3.933,-1.761 3.933,-3.934l0,-18.029c0,-2.172 -1.761,-3.933 -3.933,-3.933l-10.162,0l0,25.896zm7.868,-6.228c0.905,0 1.638,0.734 1.639,1.639c0,0.905 -0.734,1.639 -1.639,1.639l-3.278,0l0,-3.278l3.278,0zm0,-16.717c0.905,0 1.639,0.734 1.639,1.639c-0.001,0.905 -0.734,1.639 -1.639,1.639l-3.278,0l0,-3.278l3.278,0z"/>
  <rect id="svg_62" stroke-width="0.39234" stroke="#3882FF" rx="2.94252" height="16.8704" width="23.9325" y="137.981" x="152.979"/>
  <rect id="svg_63" stroke-width="0.32781" stroke="#3882FF" height="1.90128" width="17.7196" y="141.088" x="156.085"/>
  <rect id="svg_64" stroke-width="0.32781" stroke="#3882FF" height="1.90128" width="17.7196" y="144.06" x="156.085"/>
  <rect id="svg_65" stroke-width="0.32781" stroke="#3882FF" height="1.90128" width="17.7196" y="147.032" x="156.085"/>
  <rect id="svg_66" stroke-width="0.32781" stroke="#3882FF" height="1.90128" width="17.7196" y="150.004" x="156.085"/>
  <path id="svg_67" fill="black" d="m40.4076,143.796l1.106,-3.892l0.994,0.168l-0.798,2.758l2.45,0c0.28,-1.092 0.504,-2.226 0.672,-3.43l1.022,0.126c-0.182,1.176 -0.406,2.268 -0.658,3.304l6.552,0l0,0.966l-6.818,0c-0.168,0.56 -0.336,1.092 -0.532,1.596l5.726,0l0,0.868c-0.378,1.204 -1.134,2.296 -2.282,3.276c1.134,0.672 2.52,1.288 4.144,1.848l-0.518,0.938c-1.792,-0.658 -3.276,-1.372 -4.452,-2.142c-1.148,0.812 -2.576,1.54 -4.27,2.198l-0.532,-0.938c1.568,-0.574 2.87,-1.204 3.92,-1.89c-1.092,-0.84 -1.862,-1.75 -2.324,-2.73c-1.022,2.212 -2.338,3.962 -3.934,5.264l-0.518,-0.924c2.044,-1.792 3.542,-4.242 4.522,-7.364l-3.472,0zm4.158,2.52c0.476,0.952 1.274,1.834 2.394,2.646c1.036,-0.812 1.75,-1.694 2.142,-2.646l-4.536,0zm3.64,-6.804c1.008,0.77 1.834,1.54 2.506,2.31l-0.714,0.714c-0.588,-0.742 -1.414,-1.526 -2.464,-2.366l0.672,-0.658zm7.112,4.06l0,1.204l3.22,0l0,-1.204l-3.22,0zm3.22,-0.812l0,-1.218l-3.22,0l0,1.218l3.22,0zm-3.22,2.828l0,1.26l3.22,0l0,-1.26l-3.22,0zm-1.792,1.26l0.854,0l0,-6.146l1.568,0c0.196,-0.406 0.35,-0.826 0.448,-1.26l1.008,0.14c-0.112,0.392 -0.252,0.77 -0.448,1.12l2.506,0l0,10.15c0,0.882 -0.406,1.33 -1.204,1.33l-1.666,0l-0.252,-0.952l1.596,0.042c0.392,0 0.602,-0.21 0.602,-0.616l0,-2.338c-1.204,1.288 -2.772,2.352 -4.732,3.178l-0.504,-0.854c2.002,-0.77 3.598,-1.736 4.774,-2.912l-4.55,0l0,-0.882zm7.672,-1.946c0.672,0.98 1.274,2.072 1.778,3.276l-0.826,0.42c-0.532,-1.26 -1.12,-2.366 -1.764,-3.346l0.812,-0.35zm-1.022,-2.66l3.668,0l0,-2.772l1.008,0l0,2.772l1.26,0l0,0.966l-1.26,0l0,7.7c0,0.924 -0.448,1.386 -1.344,1.386l-1.96,0l-0.224,-0.994c0.644,0.042 1.246,0.07 1.834,0.07c0.448,0 0.686,-0.238 0.686,-0.714l0,-7.448l-3.668,0l0,-0.966zm13.244,-2.758l0.728,0c1.778,2.058 3.836,3.682 6.16,4.858l-0.546,0.966c-2.338,-1.26 -4.326,-2.898 -5.978,-4.914c-1.526,1.904 -3.542,3.542 -6.034,4.942l-0.532,-0.966c2.492,-1.316 4.55,-2.94 6.202,-4.886zm4.788,7.196l0,5.642l-0.98,0l0,-0.84l-6.888,0l0,0.84l-0.98,0l0,-5.642l8.848,0zm-7.868,3.836l6.888,0l0,-2.884l-6.888,0l0,2.884zm-0.196,-6.58l7.28,0l0,0.966l-7.28,0l0,-0.966zm11.914,-3.878l4.312,0l0,4.396l-1.4,0l0,2.254l1.456,0l0,0.952l-1.456,0l0,2.604c0.616,-0.196 1.218,-0.392 1.778,-0.602l0,1.008c-1.456,0.546 -3.164,1.05 -5.11,1.512l-0.28,-0.98l0.742,-0.168l0,-5.082l0.896,0l0,4.858c0.35,-0.084 0.7,-0.182 1.036,-0.266l0,-6.09l-1.974,0l0,-4.396zm3.346,3.472l0,-2.548l-2.366,0l0,2.548l2.366,0zm7.644,3.57l0,5.194l-0.966,0l0,-0.616l-3.528,0l0,0.616l-0.966,0l0,-5.194l5.46,0zm-4.494,3.654l3.528,0l0,-2.744l-3.528,0l0,2.744zm0.462,-11.284l0.966,0.182c-0.112,0.35 -0.238,0.686 -0.378,1.022l3.472,0l0,0.728c-0.476,1.176 -1.176,2.212 -2.086,3.108c0.924,0.756 2.044,1.344 3.346,1.75l-0.574,0.826c-1.386,-0.448 -2.548,-1.092 -3.486,-1.932c-0.952,0.77 -2.072,1.428 -3.388,1.988l-0.602,-0.812c1.288,-0.518 2.38,-1.134 3.304,-1.862c-0.504,-0.546 -0.924,-1.134 -1.274,-1.778c-0.364,0.42 -0.77,0.798 -1.218,1.162l-0.602,-0.798c1.232,-0.966 2.072,-2.156 2.52,-3.584zm-0.126,2.45c0.378,0.728 0.84,1.386 1.4,1.946c0.714,-0.7 1.288,-1.456 1.722,-2.296l-2.884,0c-0.084,0.112 -0.154,0.238 -0.238,0.35zm7.854,-1.89l4.2704,0l0,3.402l-4.2704,0l0,-3.402zm3.3464,2.548l0,-1.68l-2.4364,0l0,1.68l2.4364,0zm2.478,-2.548l4.354,0l0,3.402l-4.354,0l0,-3.402zm3.444,2.548l0,-1.68l-2.52,0l0,1.68l2.52,0zm-10.4024,2.254l4.7184,0c0.266,-0.364 0.476,-0.742 0.644,-1.134l0.966,0.098c-0.14,0.364 -0.322,0.7 -0.518,1.036l3.612,0c-0.196,-0.35 -0.406,-0.672 -0.63,-0.952l0.854,-0.28c0.294,0.392 0.546,0.798 0.77,1.232l1.932,0l0,0.896l-3.78,0c0.91,0.84 2.268,1.512 4.074,2.002l-0.406,0.854c-0.35,-0.112 -0.672,-0.238 -0.98,-0.35l0,4.116l-0.896,0l0,-0.602l-2.618,0l0,0.602l-0.896,0l0,-4.41l3.738,0c-1.344,-0.616 -2.38,-1.358 -3.08,-2.212l-2.366,0c-0.7844,0.896 -1.8344,1.624 -3.1504,2.212l3.5144,0l0,4.41l-0.896,0l0,-0.602l-2.3944,0l0,0.602l-0.882,0l0,-4.13c-0.378,0.14 -0.756,0.266 -1.148,0.392l-0.462,-0.826c1.792,-0.532 3.164,-1.218 4.144,-2.058l-3.864,0l0,-0.896zm2.212,6.048l2.3944,0l0,-2.1l-2.3944,0l0,2.1zm5.5304,0l2.618,0l0,-2.1l-2.618,0l0,2.1z"/>
  <rect id="svg_68" stroke-width="0.78467" stroke="#3882FF" height="18.8321" width="32.2153" y="136.326" x="115.177"/>
  <path id="svg_69" fill="#3882FF" d="m125.287,142.211l0.942,0l0,4.444l1.017,0l0,0.819l-1.017,0l0,1.46l-0.979,0l0,-1.46l-3.277,0l0,-0.97l3.314,-4.293zm-0.066,1.299l-2.41,3.145l2.439,0l0,-3.145l-0.029,0zm5.034,-1.431c0.791,0 1.403,0.329 1.836,0.998c0.396,0.621 0.594,1.45 0.594,2.495c0,1.036 -0.198,1.874 -0.594,2.495c-0.433,0.66 -1.045,0.999 -1.836,0.999c-0.791,0 -1.403,-0.339 -1.836,-0.999c-0.395,-0.621 -0.593,-1.45 -0.593,-2.495c0,-1.054 0.198,-1.883 0.593,-2.495c0.433,-0.669 1.045,-0.998 1.836,-0.998zm0,0.866c-0.555,0 -0.941,0.301 -1.167,0.914c-0.17,0.414 -0.245,0.988 -0.245,1.713c0,0.716 0.075,1.29 0.245,1.714c0.226,0.603 0.612,0.913 1.167,0.913c0.546,0 0.942,-0.31 1.168,-0.913c0.16,-0.424 0.245,-0.998 0.245,-1.714c0,-0.725 -0.085,-1.299 -0.245,-1.713c-0.226,-0.613 -0.622,-0.914 -1.168,-0.914zm3.716,-0.734l4.049,0l0,0.904l-3.22,0l-0.198,1.939l0.028,0c0.207,-0.216 0.443,-0.367 0.716,-0.461c0.245,-0.104 0.527,-0.151 0.828,-0.151c0.631,0 1.149,0.207 1.545,0.622c0.395,0.414 0.602,0.979 0.602,1.704c0,0.697 -0.263,1.262 -0.772,1.704c-0.48,0.396 -1.055,0.594 -1.723,0.594c-0.603,0 -1.121,-0.17 -1.554,-0.499c-0.48,-0.358 -0.744,-0.857 -0.791,-1.479l1.008,0c0.038,0.377 0.188,0.669 0.442,0.857c0.226,0.17 0.528,0.254 0.904,0.254c0.415,0 0.763,-0.132 1.046,-0.386c0.282,-0.263 0.423,-0.602 0.423,-1.036c0,-0.47 -0.122,-0.838 -0.367,-1.101c-0.245,-0.264 -0.584,-0.396 -1.036,-0.396c-0.301,0 -0.555,0.047 -0.781,0.16c-0.245,0.113 -0.424,0.292 -0.556,0.537l-0.96,0l0.367,-3.766z"/>
  <path id="svg_70" fill="#003691" d="m22.7271,192.719l-10.1621,0c-2.1724,0 -3.93355,-1.761 -3.93359,-3.933l0,-18.03c0,-2.172 1.76109,-3.933 3.93359,-3.933l10.1621,0l0,25.896zm-7.8682,-6.227c-0.9051,0 -1.6386,0.733 -1.6386,1.638c0,0.906 0.7334,1.639 1.6386,1.639l3.2784,0l0,-3.277l-3.2784,0zm0,-16.718c-0.9052,0 -1.6386,0.734 -1.6386,1.64c0.0002,0.905 0.7336,1.638 1.6386,1.638l3.2784,0l0,-3.278l-3.2784,0z"/>
  <rect id="svg_71" stroke-width="0.78467" stroke="#3882FF" rx="3.54135" height="20.8506" width="9.37734" y="169.513" x="27.0546"/>
  <circle id="svg_72" stroke-width="0.32781" stroke="#3075FF" r="1.14732" cy="171.416" cx="31.906"/>
  <circle id="svg_73" stroke-width="0.32781" stroke="#3075FF" r="1.14732" cy="188.79" cx="31.906"/>
  <rect id="svg_74" stroke-width="0.78467" stroke="#3882FF" height="25.1121" width="170.331" y="167.22" x="23.1222"/>
  <rect id="svg_75" stroke-width="0.78467" stroke="#3882FF" rx="3.54135" height="20.8506" width="9.37734" y="169.513" x="180.139"/>
  <circle id="svg_76" stroke-width="0.32781" stroke="#3075FF" r="1.14732" cy="171.416" cx="184.991"/>
  <circle id="svg_77" stroke-width="0.32781" stroke="#3075FF" r="1.14732" cy="188.79" cx="184.991"/>
  <path id="svg_78" fill="#003691" d="m193.844,192.719l10.162,0c2.172,0 3.933,-1.761 3.933,-3.933l0,-18.03c0,-2.172 -1.761,-3.933 -3.933,-3.933l-10.162,0l0,25.896zm7.868,-6.227c0.905,0 1.638,0.733 1.639,1.638c0,0.906 -0.734,1.639 -1.639,1.639l-3.278,0l0,-3.277l3.278,0zm0,-16.718c0.905,0 1.639,0.734 1.639,1.64c-0.001,0.905 -0.734,1.638 -1.639,1.638l-3.278,0l0,-3.278l3.278,0z"/>
  <rect id="svg_79" stroke-width="0.39234" stroke="#3882FF" rx="2.94252" height="16.8704" width="23.9325" y="171.729" x="152.979"/>
  <rect id="svg_80" stroke-width="0.32781" stroke="#3882FF" height="1.90128" width="17.7196" y="174.836" x="156.085"/>
  <rect id="svg_81" stroke-width="0.32781" stroke="#3882FF" height="1.90128" width="17.7196" y="177.808" x="156.085"/>
  <rect id="svg_82" stroke-width="0.32781" stroke="#3882FF" height="1.90128" width="17.7196" y="180.78" x="156.085"/>
  <rect id="svg_83" stroke-width="0.32781" stroke="#3882FF" height="1.90128" width="17.7196" y="183.752" x="156.085"/>
  <path id="svg_84" fill="black" d="m46.1896,175.869c0.364,0.63 0.686,1.316 0.994,2.072l1.372,0c0.392,-0.7 0.714,-1.442 0.994,-2.226l0.952,0.336c-0.266,0.7 -0.56,1.33 -0.882,1.89l2.268,0l0,0.966l-7.812,0l0,-0.966l2.142,0c-0.28,-0.616 -0.56,-1.176 -0.854,-1.68l0.826,-0.392zm1.848,-2.45c0.154,0.392 0.308,0.84 0.462,1.33l3.136,0l0,0.924l-7.238,0l0,-0.924l3.08,0c-0.154,-0.42 -0.322,-0.812 -0.49,-1.162l1.05,-0.168zm-6.986,12.796l-1.218,0l-0.21,-0.98c0.378,0.028 0.742,0.056 1.078,0.056c0.364,0 0.56,-0.182 0.56,-0.546l0,-3.444c-0.56,0.224 -1.134,0.434 -1.708,0.616l-0.252,-1.008c0.658,-0.168 1.316,-0.378 1.96,-0.63l0,-3.122l-1.708,0l0,-0.966l1.708,0l0,-2.646l1.036,0l0,2.646l1.162,0l0,0.966l-1.162,0l0,2.688c0.392,-0.196 0.784,-0.392 1.176,-0.602l0,1.022c-0.392,0.21 -0.784,0.406 -1.176,0.588l0,4.144c0,0.812 -0.42,1.218 -1.246,1.218zm5.754,-6.916l0.966,0.112c-0.14,0.378 -0.294,0.742 -0.462,1.092l4.802,0l0,0.98l-1.54,0c-0.21,1.036 -0.644,1.918 -1.302,2.632c0.952,0.448 1.876,0.924 2.758,1.428l-0.546,0.812c-0.84,-0.518 -1.806,-1.036 -2.926,-1.568c-0.924,0.672 -2.394,1.218 -4.41,1.61l-0.392,-0.91c1.624,-0.294 2.884,-0.686 3.752,-1.19c-0.854,-0.392 -1.764,-0.77 -2.744,-1.162c0.378,-0.574 0.714,-1.12 1.008,-1.652l-1.876,0l0,-0.98l2.394,0c0.196,-0.42 0.364,-0.812 0.518,-1.204zm2.814,2.184l-2.828,0c-0.252,0.434 -0.518,0.854 -0.798,1.246c0.812,0.308 1.596,0.63 2.352,0.966c0.63,-0.588 1.05,-1.316 1.274,-2.212zm4.424,2.086l-0.308,-0.854c0.196,-0.084 0.308,-0.196 0.308,-0.336l0,-7.672l0.98,0l0,7.644c0.7,-0.196 1.4,-0.434 2.1,-0.7l0,-8.078l0.994,0l0,12.684l-0.994,0l0,-3.626c-0.98,0.35 -2.016,0.658 -3.08,0.938zm6.93,-6.944c-0.168,0.448 -0.336,0.868 -0.518,1.26c0.504,1.372 1.148,2.632 1.96,3.78c0.84,-1.428 1.288,-3.108 1.372,-5.04l-2.814,0zm-1.106,2.352c-0.266,0.42 -0.546,0.798 -0.84,1.148l-0.63,-0.77c1.148,-1.456 1.932,-3.43 2.338,-5.894l1.008,0.168c-0.14,0.714 -0.294,1.386 -0.462,2.002l4.676,0l0,0.994l-1.204,0c-0.098,2.296 -0.658,4.27 -1.694,5.894c0.924,1.148 1.988,2.17 3.22,3.066l-0.686,0.812c-1.218,-0.91 -2.268,-1.918 -3.15,-3.01c-0.924,1.162 -2.114,2.128 -3.57,2.912l-0.574,-0.91c1.47,-0.728 2.646,-1.666 3.514,-2.814c-0.784,-1.12 -1.442,-2.31 -1.946,-3.598zm11.97,-5.18l0.882,0.532c-0.658,1.162 -1.316,2.114 -1.974,2.856c-0.7,0.812 -1.638,1.61 -2.8,2.394l-0.546,-0.882c0.952,-0.546 1.82,-1.26 2.59,-2.142c0.672,-0.784 1.288,-1.694 1.848,-2.758zm0.462,6.244l-2.828,0l0,-0.966l8.358,0c-0.042,1.75 -0.126,3.164 -0.266,4.242c-0.14,1.064 -0.364,1.82 -0.686,2.24c-0.308,0.406 -0.812,0.63 -1.512,0.672l-2.548,0l-0.28,-0.994c0.812,0.028 1.582,0.042 2.31,0.042c0.756,0 1.246,-0.322 1.484,-0.966c0.252,-0.672 0.406,-2.086 0.476,-4.27l-3.486,0c-0.336,1.526 -0.798,2.744 -1.4,3.64c-0.714,1.008 -1.792,1.904 -3.22,2.702l-0.644,-0.84c1.288,-0.7 2.268,-1.47 2.926,-2.31c0.588,-0.812 1.022,-1.876 1.316,-3.192zm3.486,-6.426c0.812,2.156 2.254,3.864 4.34,5.11l-0.672,0.798c-2.17,-1.4 -3.682,-3.206 -4.536,-5.418l0.868,-0.49zm6.272,0.448l4.312,0l0,4.396l-1.4,0l0,2.254l1.456,0l0,0.952l-1.456,0l0,2.604c0.616,-0.196 1.218,-0.392 1.778,-0.602l0,1.008c-1.456,0.546 -3.164,1.05 -5.11,1.512l-0.28,-0.98l0.742,-0.168l0,-5.082l0.896,0l0,4.858c0.35,-0.084 0.7,-0.182 1.036,-0.266l0,-6.09l-1.974,0l0,-4.396zm3.346,3.472l0,-2.548l-2.366,0l0,2.548l2.366,0zm7.644,3.57l0,5.194l-0.966,0l0,-0.616l-3.528,0l0,0.616l-0.966,0l0,-5.194l5.46,0zm-4.494,3.654l3.528,0l0,-2.744l-3.528,0l0,2.744zm0.462,-11.284l0.966,0.182c-0.112,0.35 -0.238,0.686 -0.378,1.022l3.472,0l0,0.728c-0.476,1.176 -1.176,2.212 -2.086,3.108c0.924,0.756 2.044,1.344 3.346,1.75l-0.574,0.826c-1.386,-0.448 -2.548,-1.092 -3.486,-1.932c-0.952,0.77 -2.072,1.428 -3.388,1.988l-0.602,-0.812c1.288,-0.518 2.38,-1.134 3.304,-1.862c-0.504,-0.546 -0.924,-1.134 -1.274,-1.778c-0.364,0.42 -0.77,0.798 -1.218,1.162l-0.602,-0.798c1.232,-0.966 2.072,-2.156 2.52,-3.584zm-0.126,2.45c0.378,0.728 0.84,1.386 1.4,1.946c0.714,-0.7 1.288,-1.456 1.722,-2.296l-2.884,0c-0.084,0.112 -0.154,0.238 -0.238,0.35zm7.854,-1.89l4.2704,0l0,3.402l-4.2704,0l0,-3.402zm3.3464,2.548l0,-1.68l-2.4364,0l0,1.68l2.4364,0zm2.478,-2.548l4.354,0l0,3.402l-4.354,0l0,-3.402zm3.444,2.548l0,-1.68l-2.52,0l0,1.68l2.52,0zm-10.4024,2.254l4.7184,0c0.266,-0.364 0.476,-0.742 0.644,-1.134l0.966,0.098c-0.14,0.364 -0.322,0.7 -0.518,1.036l3.612,0c-0.196,-0.35 -0.406,-0.672 -0.63,-0.952l0.854,-0.28c0.294,0.392 0.546,0.798 0.77,1.232l1.932,0l0,0.896l-3.78,0c0.91,0.84 2.268,1.512 4.074,2.002l-0.406,0.854c-0.35,-0.112 -0.672,-0.238 -0.98,-0.35l0,4.116l-0.896,0l0,-0.602l-2.618,0l0,0.602l-0.896,0l0,-4.41l3.738,0c-1.344,-0.616 -2.38,-1.358 -3.08,-2.212l-2.366,0c-0.7844,0.896 -1.8344,1.624 -3.1504,2.212l3.5144,0l0,4.41l-0.896,0l0,-0.602l-2.3944,0l0,0.602l-0.882,0l0,-4.13c-0.378,0.14 -0.756,0.266 -1.148,0.392l-0.462,-0.826c1.792,-0.532 3.164,-1.218 4.144,-2.058l-3.864,0l0,-0.896zm2.212,6.048l2.3944,0l0,-2.1l-2.3944,0l0,2.1zm5.5304,0l2.618,0l0,-2.1l-2.618,0l0,2.1z"/>
  <rect id="svg_85" stroke-width="0.78467" stroke="#3882FF" height="18.8321" width="32.1715" y="170.359" x="115.178"/>
  <path id="svg_86" fill="#3882FF" d="m120.813,172.326c0.678,0 1.215,0.161 1.629,0.49c0.395,0.33 0.603,0.782 0.603,1.356c0,0.734 -0.377,1.233 -1.112,1.478c0.396,0.123 0.697,0.311 0.904,0.556c0.226,0.254 0.339,0.584 0.339,0.979c0,0.622 -0.216,1.13 -0.64,1.526c-0.452,0.395 -1.045,0.602 -1.761,0.602c-0.687,0 -1.243,-0.179 -1.657,-0.527c-0.471,-0.396 -0.734,-0.97 -0.791,-1.723l1.036,0c0.019,0.452 0.16,0.8 0.442,1.045c0.245,0.226 0.565,0.339 0.961,0.339c0.433,0 0.781,-0.132 1.045,-0.377c0.226,-0.226 0.348,-0.499 0.348,-0.838c0,-0.395 -0.122,-0.687 -0.367,-0.875c-0.226,-0.189 -0.565,-0.283 -1.007,-0.283l-0.49,0l0,-0.772l0.48,0c0.415,0 0.725,-0.094 0.932,-0.273c0.208,-0.179 0.321,-0.443 0.321,-0.782c0,-0.339 -0.104,-0.593 -0.292,-0.772c-0.207,-0.188 -0.518,-0.273 -0.914,-0.273c-0.405,0 -0.725,0.104 -0.951,0.311c-0.226,0.207 -0.367,0.518 -0.405,0.932l-1.007,0c0.056,-0.668 0.301,-1.186 0.744,-1.563c0.414,-0.377 0.951,-0.556 1.61,-0.556z"/>
  <path id="svg_87" fill="#3882FF" d="m129.273,180.306l0.941,0l0,4.444l1.017,0l0,0.82l-1.017,0l0,1.459l-0.979,0l0,-1.459l-3.277,0l0,-0.97l3.315,-4.294zm-0.066,1.299l-2.411,3.145l2.439,0l0,-3.145l-0.028,0zm3.103,-1.299l4.049,0l0,0.904l-3.22,0l-0.198,1.94l0.028,0c0.208,-0.217 0.443,-0.368 0.716,-0.462c0.245,-0.103 0.527,-0.15 0.829,-0.15c0.631,0 1.148,0.207 1.544,0.621c0.395,0.414 0.603,0.979 0.603,1.704c0,0.697 -0.264,1.262 -0.773,1.705c-0.48,0.395 -1.054,0.593 -1.723,0.593c-0.602,0 -1.12,-0.17 -1.553,-0.499c-0.481,-0.358 -0.744,-0.857 -0.791,-1.479l1.007,0c0.038,0.377 0.189,0.669 0.443,0.857c0.226,0.17 0.527,0.255 0.904,0.255c0.414,0 0.762,-0.132 1.045,-0.387c0.282,-0.263 0.424,-0.602 0.424,-1.035c0,-0.471 -0.123,-0.838 -0.368,-1.102c-0.244,-0.264 -0.583,-0.395 -1.035,-0.395c-0.302,0 -0.556,0.047 -0.782,0.16c-0.245,0.113 -0.424,0.292 -0.555,0.536l-0.961,0l0.367,-3.766z"/>
  <circle id="svg_88" stroke-width="0.39234" stroke="#3882FF" r="1.56934" cy="173.891" cx="141.464"/>
  <circle id="svg_89" stroke-width="0.39234" stroke="#3882FF" r="1.56934" cy="179.384" cx="141.464"/>
  <circle id="svg_90" stroke-width="0.39234" stroke="#3882FF" r="1.56934" cy="184.877" cx="141.464"/>
  <path id="svg_91" fill="#003691" d="m22.7271,226.468l-10.1621,0c-2.1724,0 -3.93355,-1.761 -3.93359,-3.934l0,-18.029c0,-2.172 1.76109,-3.934 3.93359,-3.934l10.1621,0l0,25.897zm-7.8682,-6.228c-0.9051,0 -1.6386,0.734 -1.6386,1.639c0,0.905 0.7334,1.639 1.6386,1.639l3.2784,0l0,-3.278l-3.2784,0zm0,-16.717c-0.9052,0 -1.6386,0.734 -1.6386,1.639c0.0002,0.905 0.7336,1.639 1.6386,1.639l3.2784,0l0,-3.278l-3.2784,0z"/>
  <rect id="svg_92" stroke-width="0.78467" stroke="#3882FF" rx="3.54135" height="20.8506" width="9.37734" y="203.262" x="27.0546"/>
  <circle id="svg_93" stroke-width="0.32781" stroke="#3075FF" r="1.14732" cy="205.165" cx="31.906"/>
  <circle id="svg_94" stroke-width="0.32781" stroke="#3075FF" r="1.14732" cy="222.539" cx="31.906"/>
  <rect id="svg_95" stroke-width="0.78467" stroke="#3882FF" height="25.1121" width="170.331" y="200.969" x="23.1222"/>
  <rect id="svg_96" stroke-width="0.78467" stroke="#3882FF" rx="3.54135" height="20.8506" width="9.37734" y="203.262" x="180.139"/>
  <circle id="svg_97" stroke-width="0.32781" stroke="#3075FF" r="1.14732" cy="205.165" cx="184.991"/>
  <circle id="svg_98" stroke-width="0.32781" stroke="#3075FF" r="1.14732" cy="222.539" cx="184.991"/>
  <path id="svg_99" fill="#003691" d="m193.844,226.468l10.162,0c2.172,0 3.933,-1.761 3.933,-3.934l0,-18.029c0,-2.172 -1.761,-3.934 -3.933,-3.934l-10.162,0l0,25.897zm7.868,-6.228c0.905,0 1.638,0.734 1.639,1.639c0,0.905 -0.734,1.639 -1.639,1.639l-3.278,0l0,-3.278l3.278,0zm0,-16.717c0.905,0 1.639,0.734 1.639,1.639c-0.001,0.905 -0.734,1.639 -1.639,1.639l-3.278,0l0,-3.278l3.278,0z"/>
  <rect id="svg_100" stroke-width="0.39234" stroke="#3882FF" rx="2.94252" height="16.8704" width="23.9325" y="205.478" x="152.979"/>
  <rect id="svg_101" stroke-width="0.32781" stroke="#3882FF" height="1.90128" width="17.7196" y="208.584" x="156.085"/>
  <rect id="svg_102" stroke-width="0.32781" stroke="#3882FF" height="1.90128" width="17.7196" y="211.557" x="156.085"/>
  <rect id="svg_103" stroke-width="0.32781" stroke="#3882FF" height="1.90128" width="17.7196" y="214.529" x="156.085"/>
  <rect id="svg_104" stroke-width="0.32781" stroke="#3882FF" height="1.90128" width="17.7196" y="217.501" x="156.085"/>
  <path id="svg_105" fill="black" d="m40.5756,210.317c0.868,1.022 1.68,2.044 2.436,3.066c0.448,-1.344 0.742,-2.786 0.854,-4.326l-4.088,0l0,-0.966l5.054,0l0,0.77c-0.112,2.044 -0.476,3.878 -1.106,5.516c0.63,0.896 1.204,1.806 1.736,2.702l-0.77,0.784c-0.42,-0.784 -0.91,-1.568 -1.442,-2.38c-0.784,1.582 -1.834,2.968 -3.178,4.144l-0.686,-0.784c1.372,-1.204 2.436,-2.66 3.192,-4.34c-0.812,-1.134 -1.722,-2.296 -2.73,-3.486l0.728,-0.7zm5.124,-2.226l5.754,0l0,0.896c-0.308,2.268 -1.064,4.396 -2.282,6.412c0.784,1.288 1.778,2.534 3.01,3.752l-0.7,0.826c-1.176,-1.204 -2.156,-2.422 -2.912,-3.654c-0.896,1.274 -1.974,2.492 -3.234,3.654l-0.686,-0.84c1.344,-1.19 2.464,-2.45 3.36,-3.766c-1.106,-2.044 -1.722,-4.144 -1.848,-6.314l-0.462,0l0,-0.966zm1.372,0.966c0.112,1.848 0.63,3.626 1.54,5.362c0.952,-1.68 1.582,-3.472 1.89,-5.362l-3.43,0zm12.208,0.238l-4.802,0l0,-0.966l10.654,0l0,0.966l-4.816,0l0,8.862l5.726,0l0,0.966l-12.502,0l0,-0.966l5.74,0l0,-8.862zm9.464,-1.512l4.27,0l0,3.402l-4.27,0l0,-3.402zm3.346,2.548l0,-1.68l-2.436,0l0,1.68l2.436,0zm2.478,-2.548l4.354,0l0,3.402l-4.354,0l0,-3.402zm3.444,2.548l0,-1.68l-2.52,0l0,1.68l2.52,0zm-10.402,2.254l4.718,0c0.266,-0.364 0.476,-0.742 0.644,-1.134l0.966,0.098c-0.14,0.364 -0.322,0.7 -0.518,1.036l3.612,0c-0.196,-0.35 -0.406,-0.672 -0.63,-0.952l0.854,-0.28c0.294,0.392 0.546,0.798 0.77,1.232l1.932,0l0,0.896l-3.78,0c0.91,0.84 2.268,1.512 4.074,2.002l-0.406,0.854c-0.35,-0.112 -0.672,-0.238 -0.98,-0.35l0,4.116l-0.896,0l0,-0.602l-2.618,0l0,0.602l-0.896,0l0,-4.41l3.738,0c-1.344,-0.616 -2.38,-1.358 -3.08,-2.212l-2.366,0c-0.784,0.896 -1.834,1.624 -3.15,2.212l3.514,0l0,4.41l-0.896,0l0,-0.602l-2.394,0l0,0.602l-0.882,0l0,-4.13c-0.378,0.14 -0.756,0.266 -1.148,0.392l-0.462,-0.826c1.792,-0.532 3.164,-1.218 4.144,-2.058l-3.864,0l0,-0.896zm2.212,6.048l2.394,0l0,-2.1l-2.394,0l0,2.1zm5.53,0l2.618,0l0,-2.1l-2.618,0l0,2.1z"/>
  <rect id="svg_106" stroke-width="0.78467" stroke="#3882FF" height="18.8321" width="32.1715" y="204.108" x="115.178"/>
  <path id="svg_107" fill="#3882FF" d="m120.813,206.075c0.678,0 1.215,0.16 1.629,0.49c0.395,0.329 0.603,0.781 0.603,1.356c0,0.734 -0.377,1.233 -1.112,1.478c0.396,0.122 0.697,0.311 0.904,0.556c0.226,0.254 0.339,0.583 0.339,0.979c0,0.621 -0.216,1.13 -0.64,1.525c-0.452,0.396 -1.045,0.603 -1.761,0.603c-0.687,0 -1.243,-0.179 -1.657,-0.527c-0.471,-0.396 -0.734,-0.97 -0.791,-1.724l1.036,0c0.019,0.452 0.16,0.801 0.442,1.046c0.245,0.226 0.565,0.339 0.961,0.339c0.433,0 0.781,-0.132 1.045,-0.377c0.226,-0.226 0.348,-0.499 0.348,-0.838c0,-0.396 -0.122,-0.687 -0.367,-0.876c-0.226,-0.188 -0.565,-0.282 -1.007,-0.282l-0.49,0l0,-0.772l0.48,0c0.415,0 0.725,-0.095 0.932,-0.273c0.208,-0.179 0.321,-0.443 0.321,-0.782c0,-0.339 -0.104,-0.593 -0.292,-0.772c-0.207,-0.188 -0.518,-0.273 -0.914,-0.273c-0.405,0 -0.725,0.103 -0.951,0.311c-0.226,0.207 -0.367,0.517 -0.405,0.932l-1.007,0c0.056,-0.669 0.301,-1.187 0.744,-1.563c0.414,-0.377 0.951,-0.556 1.61,-0.556z"/>
  <path id="svg_108" fill="#3882FF" d="m129.273,214.055l0.941,0l0,4.444l1.017,0l0,0.819l-1.017,0l0,1.46l-0.979,0l0,-1.46l-3.277,0l0,-0.97l3.315,-4.293zm-0.066,1.299l-2.411,3.145l2.439,0l0,-3.145l-0.028,0zm3.103,-1.299l4.049,0l0,0.904l-3.22,0l-0.198,1.939l0.028,0c0.208,-0.216 0.443,-0.367 0.716,-0.461c0.245,-0.104 0.527,-0.151 0.829,-0.151c0.631,0 1.148,0.207 1.544,0.622c0.395,0.414 0.603,0.979 0.603,1.704c0,0.697 -0.264,1.262 -0.773,1.704c-0.48,0.396 -1.054,0.594 -1.723,0.594c-0.602,0 -1.12,-0.17 -1.553,-0.5c-0.481,-0.357 -0.744,-0.856 -0.791,-1.478l1.007,0c0.038,0.377 0.189,0.669 0.443,0.857c0.226,0.17 0.527,0.254 0.904,0.254c0.414,0 0.762,-0.132 1.045,-0.386c0.282,-0.263 0.424,-0.602 0.424,-1.036c0,-0.47 -0.123,-0.838 -0.368,-1.101c-0.244,-0.264 -0.583,-0.396 -1.035,-0.396c-0.302,0 -0.556,0.047 -0.782,0.16c-0.245,0.113 -0.424,0.292 -0.555,0.537l-0.961,0l0.367,-3.766z"/>
  <circle id="svg_109" stroke-width="0.39234" stroke="#3882FF" r="1.56934" cy="207.64" cx="141.464"/>
  <circle id="svg_110" stroke-width="0.39234" stroke="#3882FF" r="1.56934" cy="213.133" cx="141.464"/>
  <circle id="svg_111" stroke-width="0.39234" stroke="#3882FF" r="1.56934" cy="218.625" cx="141.464"/>
  <path id="svg_112" fill="#003691" d="m22.7271,260.218l-10.1621,0c-2.1723,-0.001 -3.9334,-1.762 -3.93359,-3.934l0,-18.029c0,-2.173 1.76109,-3.935 3.93359,-3.935l10.1621,0l0,25.898zm-7.8682,-6.229c-0.9052,0 -1.6386,0.734 -1.6386,1.64c0.0001,0.905 0.7335,1.638 1.6386,1.638l3.2784,0l0,-3.278l-3.2784,0zm0,-16.717c-0.905,0 -1.6384,0.734 -1.6386,1.639c0,0.905 0.7334,1.64 1.6386,1.64l3.2784,0l0,-3.279l-3.2784,0z"/>
  <rect id="svg_113" stroke-width="0.78467" stroke="#3882FF" rx="3.54135" height="20.8506" width="9.37734" y="237.008" x="27.0546"/>
  <circle id="svg_114" stroke-width="0.32781" stroke="#3075FF" r="1.14732" cy="238.91" cx="31.906"/>
  <circle id="svg_115" stroke-width="0.32781" stroke="#3075FF" r="1.14732" cy="256.284" cx="31.906"/>
  <rect id="svg_116" stroke-width="0.78467" stroke="#3882FF" height="25.1121" width="170.331" y="234.713" x="23.1222"/>
  <rect id="svg_117" stroke-width="0.78467" stroke="#3882FF" rx="3.54135" height="20.8506" width="9.37734" y="237.008" x="180.139"/>
  <circle id="svg_118" stroke-width="0.32781" stroke="#3075FF" r="1.14732" cy="238.91" cx="184.991"/>
  <circle id="svg_119" stroke-width="0.32781" stroke="#3075FF" r="1.14732" cy="256.284" cx="184.991"/>
  <path id="svg_120" fill="#003691" d="m193.844,260.218l10.162,0c2.172,-0.001 3.933,-1.762 3.933,-3.934l0,-18.029c0,-2.173 -1.761,-3.935 -3.933,-3.935l-10.162,0l0,25.898zm7.868,-6.229c0.905,0 1.639,0.734 1.639,1.64c-0.001,0.905 -0.734,1.638 -1.639,1.638l-3.278,0l0,-3.278l3.278,0zm0,-16.717c0.905,0 1.638,0.734 1.639,1.639c0,0.905 -0.734,1.64 -1.639,1.64l-3.278,0l0,-3.279l3.278,0z"/>
  <rect id="svg_121" stroke-width="0.39234" stroke="#3882FF" rx="2.94252" height="16.8704" width="23.9325" y="239.223" x="152.979"/>
  <rect id="svg_122" stroke-width="0.32781" stroke="#3882FF" height="1.90128" width="17.7196" y="242.33" x="156.085"/>
  <rect id="svg_123" stroke-width="0.32781" stroke="#3882FF" height="1.90128" width="17.7196" y="245.302" x="156.085"/>
  <rect id="svg_124" stroke-width="0.32781" stroke="#3882FF" height="1.90128" width="17.7196" y="248.274" x="156.085"/>
  <rect id="svg_125" stroke-width="0.32781" stroke="#3882FF" height="1.90128" width="17.7196" y="251.246" x="156.085"/>
  <path id="svg_126" fill="black" d="m48.8571,242.6l1.036,0l0,5.194l5.6,0l0,0.994l-4.018,0l0,4.69c0,0.42 0.196,0.63 0.588,0.63l1.694,0c0.308,0 0.532,-0.098 0.672,-0.294c0.168,-0.252 0.28,-0.966 0.336,-2.17l0.966,0.308c-0.098,1.484 -0.294,2.38 -0.574,2.688c-0.252,0.28 -0.658,0.42 -1.218,0.42l-2.184,0c-0.868,0 -1.288,-0.462 -1.288,-1.372l0,-4.9l-2.366,0l0,0.098c-0.042,1.75 -0.42,3.15 -1.134,4.214c-0.7,0.98 -1.848,1.736 -3.43,2.282l-0.574,-0.896c1.54,-0.532 2.604,-1.218 3.22,-2.086c0.56,-0.896 0.868,-2.072 0.896,-3.514l0,-0.098l-3.808,0l0,-0.994l5.586,0l0,-5.194zm4.648,0.672l0.938,0.448c-0.476,1.148 -1.106,2.268 -1.876,3.346l-0.91,-0.462c0.77,-1.12 1.386,-2.24 1.848,-3.332zm-8.218,0.126c0.686,0.98 1.33,2.044 1.946,3.206l-0.938,0.462c-0.616,-1.204 -1.274,-2.268 -1.96,-3.22l0.952,-0.448zm16.646,9.184l0,0.98c-1.414,0.518 -3.024,0.938 -4.816,1.274l-0.126,-0.994c1.876,-0.322 3.528,-0.742 4.942,-1.26zm-2.562,-10.038l0.966,0.392c-0.714,1.82 -1.428,3.262 -2.156,4.34c0.658,-0.07 1.316,-0.168 1.988,-0.294c0.266,-0.504 0.546,-1.022 0.826,-1.568l0.924,0.336c-1.26,2.352 -2.296,4.018 -3.136,5.026c1.008,-0.196 2.002,-0.448 2.996,-0.77l0,0.896c-1.484,0.504 -2.912,0.84 -4.27,1.036l-0.266,-0.966c0.182,-0.084 0.336,-0.182 0.462,-0.294c0.532,-0.546 1.19,-1.47 1.96,-2.786l-2.422,0.42l-0.28,-0.994c0.168,-0.07 0.322,-0.21 0.462,-0.406c0.742,-1.26 1.386,-2.716 1.946,-4.368zm2.352,5.796l3.5,0l0,-3.514c-0.896,0.168 -1.834,0.322 -2.814,0.434l-0.21,-0.952c2.436,-0.252 4.606,-0.714 6.482,-1.414l0.35,0.924c-0.868,0.308 -1.806,0.574 -2.8,0.798l0,3.724l3.514,0l0,0.966l-3.514,0l0,6.076l-1.008,0l0,-6.076l-3.5,0l0,-0.966zm18.228,-0.868l-2.744,0c-0.112,2.268 -0.658,4.102 -1.61,5.474l-0.7,-0.728c0.868,-1.232 1.33,-2.94 1.4,-5.124l0,-3.626c2.156,-0.042 4.088,-0.294 5.824,-0.77l0.476,0.882c-1.596,0.42 -3.388,0.672 -5.362,0.742l0,2.184l6.132,0l0,0.966l-2.436,0l0,5.894l-0.98,0l0,-5.894zm-7.784,-4.69c0.924,0.742 1.708,1.484 2.352,2.226l-0.728,0.714c-0.56,-0.7 -1.33,-1.47 -2.31,-2.282l0.686,-0.658zm8.134,12.404c-0.756,0 -1.582,-0.014 -2.464,-0.028c-0.896,-0.028 -1.61,-0.112 -2.17,-0.252c-0.546,-0.168 -1.036,-0.518 -1.47,-1.036c-0.182,-0.238 -0.364,-0.35 -0.532,-0.35c-0.336,0 -0.882,0.644 -1.652,1.932l-0.756,-0.686c0.742,-1.176 1.4,-1.89 1.974,-2.142l0,-4.256l-2.002,0l0,-0.924l2.94,0l0,5.25c0.112,0.084 0.224,0.196 0.336,0.322c0.336,0.392 0.686,0.686 1.078,0.882c0.42,0.196 1.05,0.294 1.862,0.322c0.728,0.014 1.638,0.028 2.716,0.028c0.672,0 1.344,-0.014 2.044,-0.014c0.686,-0.014 1.218,-0.028 1.582,-0.056l-0.252,1.008l-3.234,0zm4.676,-10.262l1.834,0c-0.196,-0.728 -0.406,-1.4 -0.644,-2.002l1.008,-0.168c0.196,0.63 0.392,1.358 0.588,2.17l1.638,0l0,0.952l-4.424,0l0,-0.952zm1.148,1.778c0.294,1.596 0.56,3.444 0.798,5.516l-0.826,0.21c-0.21,-1.89 -0.476,-3.71 -0.798,-5.46l0.826,-0.266zm3.262,5.642l0,0.966c-1.288,0.504 -2.688,0.91 -4.186,1.246l-0.252,-0.994c0.826,-0.14 1.638,-0.322 2.422,-0.546c0.336,-2.044 0.574,-4.2 0.728,-6.496l0.91,0.126c-0.168,2.198 -0.434,4.228 -0.77,6.104c0.392,-0.14 0.784,-0.266 1.148,-0.406zm6.65,-7.042l0,-2.142l0.952,0l0,3.024l-6.664,0l0,-3.024l0.966,0l0,2.142l1.862,0l0,-2.688l0.98,0l0,2.688l1.904,0zm-6.314,2.058l7.966,0l0,0.924l-3.682,0c-0.098,0.462 -0.238,0.91 -0.406,1.344l3.682,0l0,4.69c0,0.7 -0.294,1.05 -0.882,1.05l-0.644,0l-0.238,-0.91l0.574,0.042c0.182,0 0.28,-0.126 0.28,-0.378l0,-3.598l-1.26,0l0,4.62l-0.854,0l0,-4.62l-1.134,0l0,4.634l-0.854,0l0,-4.634l-1.232,0l0,4.844l-0.91,0l0,-5.74l2.492,0c0.168,-0.434 0.308,-0.882 0.392,-1.344l-3.29,0l0,-0.924zm9.464,-2.03l2.0859,0l0,-2.73l1.008,0l0,2.73l1.736,0l0,0.966l-1.736,0l0,0.714c0.644,0.672 1.302,1.414 1.974,2.24l-0.588,0.868c-0.532,-0.882 -0.994,-1.596 -1.386,-2.142l0,7.378l-1.008,0l0,-7.112c-0.49,1.4 -1.134,2.66 -1.9179,3.808l-0.434,-1.092c1.078,-1.358 1.8479,-2.912 2.3099,-4.662l-2.0439,0l0,-0.966zm4.1719,9.408c0.602,-0.882 1.022,-1.82 1.26,-2.814c0.182,-0.854 0.28,-2.002 0.28,-3.444l0,-5.306l4.522,0l0,10.598c0,0.238 0.098,0.364 0.322,0.364l0.476,0c0.168,0 0.294,-0.028 0.392,-0.084c0.112,-0.084 0.182,-0.21 0.21,-0.406c0.056,-0.28 0.098,-1.078 0.098,-2.422l0.924,0.294c0,1.008 -0.042,1.764 -0.098,2.296c-0.056,0.504 -0.196,0.84 -0.42,1.036c-0.224,0.154 -0.56,0.238 -1.008,0.238l-0.574,0c-0.896,0 -1.344,-0.406 -1.344,-1.218l0,-9.744l-2.492,0l0,4.354c0,1.54 -0.126,2.828 -0.378,3.864c-0.238,1.092 -0.686,2.128 -1.344,3.136l-0.826,-0.742z"/>
  <rect id="svg_127" stroke-width="0.78467" stroke="#3882FF" height="18.8321" width="32.1715" y="238.12" x="115.176"/>
  <path id="svg_128" fill="#3882FF" d="m120.812,240.088c0.678,0 1.214,0.16 1.629,0.489c0.395,0.33 0.602,0.782 0.602,1.356c0,0.735 -0.376,1.234 -1.111,1.479c0.396,0.122 0.697,0.31 0.904,0.555c0.226,0.254 0.339,0.584 0.339,0.979c0,0.622 -0.217,1.13 -0.64,1.526c-0.452,0.395 -1.045,0.603 -1.761,0.603c-0.687,0 -1.243,-0.179 -1.657,-0.528c-0.471,-0.395 -0.735,-0.97 -0.791,-1.723l1.035,0c0.019,0.452 0.161,0.8 0.443,1.045c0.245,0.226 0.565,0.339 0.96,0.339c0.434,0 0.782,-0.132 1.046,-0.376c0.226,-0.226 0.348,-0.499 0.348,-0.838c0,-0.396 -0.122,-0.688 -0.367,-0.876c-0.226,-0.188 -0.565,-0.283 -1.008,-0.283l-0.489,0l0,-0.772l0.48,0c0.414,0 0.725,-0.094 0.932,-0.273c0.207,-0.179 0.32,-0.442 0.32,-0.781c0,-0.339 -0.103,-0.594 -0.292,-0.772c-0.207,-0.189 -0.518,-0.274 -0.913,-0.274c-0.405,0 -0.725,0.104 -0.951,0.311c-0.226,0.207 -0.367,0.518 -0.405,0.932l-1.007,0c0.056,-0.668 0.301,-1.186 0.743,-1.563c0.415,-0.376 0.951,-0.555 1.611,-0.555z"/>
  <path id="svg_129" fill="#3882FF" d="m129.271,248.067l0.942,0l0,4.445l1.017,0l0,0.819l-1.017,0l0,1.459l-0.979,0l0,-1.459l-3.277,0l0,-0.97l3.314,-4.294zm-0.066,1.3l-2.41,3.145l2.439,0l0,-3.145l-0.029,0zm3.104,-1.3l4.049,0l0,0.904l-3.22,0l-0.198,1.94l0.028,0c0.207,-0.217 0.443,-0.367 0.716,-0.461c0.245,-0.104 0.527,-0.151 0.828,-0.151c0.631,0 1.149,0.207 1.545,0.621c0.395,0.415 0.602,0.98 0.602,1.705c0,0.696 -0.263,1.261 -0.772,1.704c-0.48,0.395 -1.055,0.593 -1.723,0.593c-0.603,0 -1.121,-0.169 -1.554,-0.499c-0.48,-0.358 -0.744,-0.857 -0.791,-1.478l1.008,0c0.038,0.376 0.188,0.668 0.442,0.857c0.226,0.169 0.528,0.254 0.904,0.254c0.415,0 0.763,-0.132 1.046,-0.386c0.282,-0.264 0.423,-0.603 0.423,-1.036c0,-0.471 -0.122,-0.838 -0.367,-1.102c-0.245,-0.263 -0.584,-0.395 -1.036,-0.395c-0.301,0 -0.555,0.047 -0.781,0.16c-0.245,0.113 -0.424,0.292 -0.556,0.537l-0.96,0l0.367,-3.767z"/>
  <circle id="svg_130" stroke-width="0.39234" stroke="#3882FF" r="1.56934" cy="241.649" cx="141.463"/>
  <circle id="svg_131" stroke-width="0.39234" stroke="#3882FF" r="1.56934" cy="247.141" cx="141.463"/>
  <circle id="svg_132" stroke-width="0.39234" stroke="#3882FF" r="1.56934" cy="252.633" cx="141.463"/>
 </g>
</svg>