<svg width="217" height="270" viewBox="0 0 217 270" fill="none" xmlns="http://www.w3.org/2000/svg">
<rect x="0.784668" y="0.784668" width="215.001" height="267.716" rx="9.41606" stroke="#3882FF" stroke-width="1.56934"/>
<path d="M47.3144 13.6354H55.5044V14.9374H52.1724V23.6314H50.6604V14.9374H47.3144V13.6354ZM56.0393 13.6354H57.9013L60.3373 17.2474L62.7733 13.6354H64.6353L61.2473 18.4654L64.8733 23.6314H63.0113L60.3373 19.6694L57.6633 23.6314H55.8013L59.3993 18.4654L56.0393 13.6354Z" fill="#222222"/>
<g filter="url(#filter0_d_1_105)">
<rect width="94.946" height="25.1095" transform="translate(8.63141 32.6314)" fill="#FF0000"/>
</g>
<path d="M151.946 13.6354H156.37C157.378 13.6354 158.19 13.8594 158.778 14.3214C159.394 14.8254 159.702 15.5394 159.702 16.4914C159.702 17.0234 159.562 17.4854 159.282 17.8914C158.96 18.3394 158.526 18.6334 157.98 18.7734V18.8014C158.876 18.9974 159.366 19.5854 159.478 20.5654L159.646 22.1614C159.702 22.7774 159.898 23.2674 160.234 23.6314H158.582C158.344 23.3234 158.204 22.8754 158.148 22.3154L158.022 21.0694C157.966 20.5094 157.784 20.1174 157.49 19.8654C157.182 19.6134 156.748 19.5014 156.174 19.5014H153.472V23.6314H151.946V13.6354ZM153.472 14.9374V18.1994H156.174C156.846 18.1994 157.35 18.0454 157.686 17.7654C158.008 17.4854 158.176 17.0794 158.176 16.5474C158.176 15.9874 158.008 15.5814 157.7 15.3294C157.364 15.0634 156.86 14.9374 156.16 14.9374H153.472ZM160.968 13.6354H162.83L165.266 17.2474L167.702 13.6354H169.564L166.176 18.4654L169.802 23.6314H167.94L165.266 19.6694L162.592 23.6314H160.73L164.328 18.4654L160.968 13.6354Z" fill="#222222"/>
<g filter="url(#filter1_d_1_105)">
<rect x="112.993" y="32.6314" width="94.946" height="25.1095" fill="#00DC79"/>
<rect x="113.493" y="33.1314" width="93.946" height="24.1095" stroke="#00DC79"/>
</g>
<path d="M22.7272 91.4839H12.5651C10.3927 91.4838 8.63153 89.7228 8.63153 87.5503V69.521C8.63155 67.3485 10.3927 65.5875 12.5651 65.5874H22.7272V91.4839ZM14.8591 85.2563C13.9539 85.2564 13.2205 85.9899 13.2204 86.895C13.2204 87.8002 13.9539 88.5347 14.8591 88.5347H18.1374V85.2563H14.8591ZM14.8591 68.5386C13.9539 68.5386 13.2204 69.273 13.2204 70.1782C13.2205 71.0834 13.9539 71.8169 14.8591 71.8169H18.1374V68.5386H14.8591Z" fill="#003691"/>
<rect x="27.0547" y="68.2744" width="9.37734" height="20.8506" rx="3.54135" stroke="#3882FF" stroke-width="0.784672"/>
<circle cx="31.9061" cy="70.1771" r="1.14732" stroke="#3075FF" stroke-width="0.327807"/>
<circle cx="31.9061" cy="87.5509" r="1.14732" stroke="#3075FF" stroke-width="0.327807"/>
<rect x="23.1223" y="65.9829" width="170.331" height="25.1121" stroke="#3882FF" stroke-width="0.784672"/>
<rect x="180.139" y="68.2744" width="9.37734" height="20.8506" rx="3.54135" stroke="#3882FF" stroke-width="0.784672"/>
<circle cx="184.991" cy="70.1771" r="1.14732" stroke="#3075FF" stroke-width="0.327807"/>
<circle cx="184.991" cy="87.5509" r="1.14732" stroke="#3075FF" stroke-width="0.327807"/>
<path d="M193.844 91.4839H204.006C206.178 91.4838 207.94 89.7228 207.94 87.5503V69.521C207.939 67.3485 206.178 65.5875 204.006 65.5874H193.844V91.4839ZM201.712 85.2563C202.617 85.2564 203.351 85.9899 203.351 86.895C203.351 87.8002 202.617 88.5347 201.712 88.5347H198.434V85.2563H201.712ZM201.712 68.5386C202.617 68.5386 203.351 69.273 203.351 70.1782C203.351 71.0834 202.617 71.8169 201.712 71.8169H198.434V68.5386H201.712Z" fill="#003691"/>
<rect x="115.174" y="69.1185" width="31.3869" height="18.8321" stroke="#3882FF" stroke-width="0.784672"/>
<rect x="117.921" y="75.0955" width="25.8967" height="6.88394" rx="0.655614" stroke="#3882FF" stroke-width="0.784672"/>
<rect x="118.412" y="84.3334" width="1.96684" height="1.96684" rx="0.327807" fill="#3075FF"/>
<rect x="123.002" y="84.3334" width="1.96684" height="1.96684" rx="0.327807" fill="#3075FF"/>
<rect x="127.591" y="84.3334" width="1.96684" height="1.96684" rx="0.327807" fill="#3075FF"/>
<rect x="132.18" y="84.3336" width="1.96684" height="1.96684" rx="0.327807" fill="#3075FF"/>
<rect x="136.769" y="84.3334" width="1.96684" height="1.96684" rx="0.327807" fill="#3075FF"/>
<rect x="141.359" y="84.3334" width="1.96684" height="1.96684" rx="0.327807" fill="#3075FF"/>
<rect x="149.947" y="73.103" width="21.6722" height="1.90128" stroke="#3882FF" stroke-width="0.327807"/>
<rect x="149.947" y="76.0751" width="21.6722" height="1.90128" stroke="#3882FF" stroke-width="0.327807"/>
<rect x="149.947" y="79.0472" width="21.6722" height="1.90128" stroke="#3882FF" stroke-width="0.327807"/>
<rect x="149.947" y="82.0193" width="21.6722" height="1.90128" stroke="#3882FF" stroke-width="0.327807"/>
<path d="M41.9398 77.4991C41.5198 78.1151 41.0578 78.7171 40.5538 79.2771L40.2318 78.1991C41.6038 76.5051 42.5978 74.5591 43.2278 72.3751L44.1658 72.8091C43.8298 73.8871 43.4238 74.8951 42.9338 75.8471V85.3671H41.9398V77.4991ZM44.1098 74.3491H48.4218C48.2118 73.7891 47.9738 73.2571 47.6938 72.7251L48.6598 72.4591C48.9538 73.0751 49.1778 73.6351 49.3458 74.1531L48.8138 74.3491H53.2238V75.3011H44.1098V74.3491ZM45.3978 76.4351H52.0198V77.3451H45.3978V76.4351ZM45.3978 78.4091H52.0198V79.3331H45.3978V78.4091ZM52.2718 80.4811V85.3391H51.2918V84.5831H46.1118V85.3391H45.1318V80.4811H52.2718ZM46.1118 83.6311H51.2918V81.4191H46.1118V83.6311ZM58.4458 74.0551H60.7698C60.5458 73.6211 60.2938 73.2151 60.0138 72.8371L60.9518 72.4871C61.2598 72.9351 61.5538 73.4531 61.8058 74.0551H63.4578C63.7938 73.5511 64.1018 73.0191 64.3538 72.4591L65.3338 72.7951C65.0958 73.2711 64.8438 73.6911 64.5638 74.0551H66.9438V74.9931H63.0238C62.9258 75.3851 62.7998 75.7631 62.6598 76.1271H65.9918V82.8751H59.3558V76.1271H61.5958C61.7498 75.7491 61.8618 75.3711 61.9458 74.9931H58.4458V74.0551ZM65.0398 81.9791V80.8171H60.3078V81.9791H65.0398ZM60.3078 80.0051H65.0398V78.9411H60.3078V80.0051ZM60.3078 78.1291H65.0398V77.0231H60.3078V78.1291ZM55.5478 72.7251C56.5138 73.4531 57.3258 74.1811 57.9838 74.9091L57.2698 75.6091C56.6818 74.9091 55.8838 74.1671 54.8618 73.3831L55.5478 72.7251ZM63.7098 85.0871C62.9538 85.0871 62.1278 85.0731 61.2318 85.0591C60.3358 85.0451 59.6078 84.9611 59.0478 84.8071C58.4878 84.6391 57.9978 84.2891 57.5778 83.7851C57.3818 83.5471 57.1998 83.4351 57.0318 83.4351C56.6958 83.4351 56.1358 84.0651 55.3378 85.3531L54.5818 84.6811C55.3518 83.4771 56.0238 82.7631 56.5978 82.5391V78.2831H54.5398V77.3591H57.5358V82.5951C57.6478 82.6791 57.7598 82.7911 57.8718 82.9171C58.2078 83.3231 58.5718 83.6171 58.9498 83.7991C59.3838 83.9951 60.0138 84.1071 60.8398 84.1351C61.5678 84.1491 62.4778 84.1631 63.5698 84.1631C64.2278 84.1631 64.8998 84.1491 65.5858 84.1351C66.2578 84.1211 66.7898 84.1071 67.1538 84.0791L66.9158 85.0871H63.7098ZM68.5958 75.2451H70.6818V72.5151H71.6898V75.2451H73.4258V76.2111H71.6898V76.9251C72.3338 77.5971 72.9918 78.3391 73.6638 79.1651L73.0758 80.0331C72.5438 79.1511 72.0818 78.4371 71.6898 77.8911V85.2691H70.6818V78.1571C70.1918 79.5571 69.5478 80.8171 68.7638 81.9651L68.3298 80.8731C69.4078 79.5151 70.1778 77.9611 70.6398 76.2111H68.5958V75.2451ZM72.7678 84.6531C73.3698 83.7711 73.7898 82.8331 74.0278 81.8391C74.2098 80.9851 74.3078 79.8371 74.3078 78.3951V73.0891H78.8298V83.6871C78.8298 83.9251 78.9278 84.0511 79.1518 84.0511H79.6278C79.7958 84.0511 79.9218 84.0231 80.0198 83.9671C80.1318 83.8831 80.2018 83.7571 80.2298 83.5611C80.2858 83.2811 80.3278 82.4831 80.3278 81.1391L81.2518 81.4331C81.2518 82.4411 81.2098 83.1971 81.1538 83.7291C81.0978 84.2331 80.9578 84.5691 80.7338 84.7651C80.5098 84.9191 80.1738 85.0031 79.7258 85.0031H79.1518C78.2558 85.0031 77.8078 84.5971 77.8078 83.7851V74.0411H75.3158V78.3951C75.3158 79.9351 75.1898 81.2231 74.9378 82.2591C74.6998 83.3511 74.2518 84.3871 73.5938 85.3951L72.7678 84.6531Z" fill="black"/>
<path d="M22.7271 125.231H12.565C10.3925 125.231 8.63141 123.47 8.63141 121.297V103.268C8.63141 101.095 10.3925 99.3342 12.565 99.3342H22.7271V125.231ZM14.8589 119.003C13.9538 119.003 13.2204 119.737 13.2203 120.642C13.2203 121.547 13.9537 122.281 14.8589 122.281H18.1373V119.003H14.8589ZM14.8589 102.285C13.9537 102.285 13.2203 103.02 13.2203 103.925C13.2204 104.83 13.9538 105.564 14.8589 105.564H18.1373V102.285H14.8589Z" fill="#003691"/>
<rect x="27.0546" y="102.021" width="9.37734" height="20.8506" rx="3.54135" stroke="#3882FF" stroke-width="0.784672"/>
<circle cx="31.906" cy="103.924" r="1.14732" stroke="#3075FF" stroke-width="0.327807"/>
<circle cx="31.906" cy="121.298" r="1.14732" stroke="#3075FF" stroke-width="0.327807"/>
<rect x="23.1222" y="99.7277" width="170.331" height="25.1121" stroke="#3882FF" stroke-width="0.784672"/>
<rect x="180.139" y="102.021" width="9.37734" height="20.8506" rx="3.54135" stroke="#3882FF" stroke-width="0.784672"/>
<circle cx="184.991" cy="103.924" r="1.14732" stroke="#3075FF" stroke-width="0.327807"/>
<circle cx="184.991" cy="121.298" r="1.14732" stroke="#3075FF" stroke-width="0.327807"/>
<path d="M193.844 125.231H204.006C206.178 125.231 207.939 123.47 207.939 121.297V103.268C207.939 101.095 206.178 99.3342 204.006 99.3342H193.844V125.231ZM201.712 119.003C202.617 119.003 203.35 119.737 203.351 120.642C203.351 121.547 202.617 122.281 201.712 122.281H198.434V119.003H201.712ZM201.712 102.285C202.617 102.285 203.351 103.02 203.351 103.925C203.35 104.83 202.617 105.564 201.712 105.564H198.434V102.285H201.712Z" fill="#003691"/>
<rect x="115.174" y="103.33" width="31.3869" height="18.8321" stroke="#3882FF" stroke-width="0.784672"/>
<rect x="118.705" y="109.215" width="25.1095" height="6.88394" rx="0.655614" stroke="#3882FF" stroke-width="0.784672"/>
<rect x="118.705" y="118.453" width="1.96684" height="1.96684" rx="0.327807" fill="#3075FF"/>
<rect x="123.294" y="118.453" width="1.96684" height="1.96684" rx="0.327807" fill="#3075FF"/>
<rect x="127.884" y="118.453" width="1.96684" height="1.96684" rx="0.327807" fill="#3075FF"/>
<rect x="132.473" y="118.453" width="1.96684" height="1.96684" rx="0.327807" fill="#3075FF"/>
<rect x="137.062" y="118.453" width="1.96684" height="1.96684" rx="0.327807" fill="#3075FF"/>
<rect x="141.652" y="118.453" width="1.96684" height="1.96684" rx="0.327807" fill="#3075FF"/>
<rect x="150.038" y="107.337" width="21.643" height="1.90128" stroke="#3882FF" stroke-width="0.327807"/>
<rect x="150.038" y="110.309" width="21.643" height="1.90128" stroke="#3882FF" stroke-width="0.327807"/>
<rect x="150.038" y="113.281" width="21.643" height="1.90128" stroke="#3882FF" stroke-width="0.327807"/>
<rect x="150.038" y="116.253" width="21.643" height="1.90128" stroke="#3882FF" stroke-width="0.327807"/>
<path d="M40.9396 110.496C40.5196 111.112 40.0576 111.714 39.5536 112.274L39.2316 111.196C40.6036 109.502 41.5976 107.556 42.2276 105.372L43.1656 105.806C42.8296 106.884 42.4236 107.892 41.9336 108.844V118.364H40.9396V110.496ZM43.1096 107.346H47.4216C47.2116 106.786 46.9736 106.254 46.6936 105.722L47.6596 105.456C47.9536 106.072 48.1776 106.632 48.3456 107.15L47.8136 107.346H52.2236V108.298H43.1096V107.346ZM44.3976 109.432H51.0196V110.342H44.3976V109.432ZM44.3976 111.406H51.0196V112.33H44.3976V111.406ZM51.2716 113.478V118.336H50.2916V117.58H45.1116V118.336H44.1316V113.478H51.2716ZM45.1116 116.628H50.2916V114.416H45.1116V116.628ZM57.4456 107.052H59.7696C59.5456 106.618 59.2936 106.212 59.0136 105.834L59.9516 105.484C60.2596 105.932 60.5536 106.45 60.8056 107.052H62.4576C62.7936 106.548 63.1016 106.016 63.3536 105.456L64.3336 105.792C64.0956 106.268 63.8436 106.688 63.5636 107.052H65.9436V107.99H62.0236C61.9256 108.382 61.7996 108.76 61.6596 109.124H64.9916V115.872H58.3556V109.124H60.5956C60.7496 108.746 60.8616 108.368 60.9456 107.99H57.4456V107.052ZM64.0396 114.976V113.814H59.3076V114.976H64.0396ZM59.3076 113.002H64.0396V111.938H59.3076V113.002ZM59.3076 111.126H64.0396V110.02H59.3076V111.126ZM54.5476 105.722C55.5136 106.45 56.3256 107.178 56.9836 107.906L56.2696 108.606C55.6816 107.906 54.8836 107.164 53.8616 106.38L54.5476 105.722ZM62.7096 118.084C61.9536 118.084 61.1276 118.07 60.2316 118.056C59.3356 118.042 58.6076 117.958 58.0476 117.804C57.4876 117.636 56.9976 117.286 56.5776 116.782C56.3816 116.544 56.1996 116.432 56.0316 116.432C55.6956 116.432 55.1356 117.062 54.3376 118.35L53.5816 117.678C54.3516 116.474 55.0236 115.76 55.5976 115.536V111.28H53.5396V110.356H56.5356V115.592C56.6476 115.676 56.7596 115.788 56.8716 115.914C57.2076 116.32 57.5716 116.614 57.9496 116.796C58.3836 116.992 59.0136 117.104 59.8396 117.132C60.5676 117.146 61.4776 117.16 62.5696 117.16C63.2276 117.16 63.8996 117.146 64.5856 117.132C65.2576 117.118 65.7896 117.104 66.1536 117.076L65.9156 118.084H62.7096ZM67.5956 108.242H69.6816V105.512H70.6896V108.242H72.4256V109.208H70.6896V109.922C71.3336 110.594 71.9916 111.336 72.6636 112.162L72.0756 113.03C71.5436 112.148 71.0816 111.434 70.6896 110.888V118.266H69.6816V111.154C69.1916 112.554 68.5476 113.814 67.7636 114.962L67.3296 113.87C68.4076 112.512 69.1776 110.958 69.6396 109.208H67.5956V108.242ZM71.7676 117.65C72.3696 116.768 72.7896 115.83 73.0276 114.836C73.2096 113.982 73.3076 112.834 73.3076 111.392V106.086H77.8296V116.684C77.8296 116.922 77.9276 117.048 78.1516 117.048H78.6276C78.7956 117.048 78.9216 117.02 79.0196 116.964C79.1316 116.88 79.2016 116.754 79.2296 116.558C79.2856 116.278 79.3276 115.48 79.3276 114.136L80.2516 114.43C80.2516 115.438 80.2096 116.194 80.1536 116.726C80.0976 117.23 79.9576 117.566 79.7336 117.762C79.5096 117.916 79.1736 118 78.7256 118H78.1516C77.2556 118 76.8076 117.594 76.8076 116.782V107.038H74.3156V111.392C74.3156 112.932 74.1896 114.22 73.9376 115.256C73.6996 116.348 73.2516 117.384 72.5936 118.392L71.7676 117.65Z" fill="black"/>
<path d="M22.7271 158.976H12.565C10.3926 158.976 8.63142 157.215 8.63141 155.042V137.013C8.63141 134.841 10.3925 133.08 12.565 133.08H22.7271V158.976ZM14.8589 152.748C13.9538 152.748 13.2203 153.482 13.2203 154.387C13.2203 155.292 13.9537 156.026 14.8589 156.026H18.1373V152.748H14.8589ZM14.8589 136.031C13.9537 136.031 13.2203 136.765 13.2203 137.67C13.2204 138.575 13.9538 139.309 14.8589 139.309H18.1373V136.031H14.8589Z" fill="#003691"/>
<rect x="27.0546" y="135.766" width="9.37734" height="20.8506" rx="3.54135" stroke="#3882FF" stroke-width="0.784672"/>
<circle cx="31.906" cy="137.669" r="1.14732" stroke="#3075FF" stroke-width="0.327807"/>
<circle cx="31.906" cy="155.043" r="1.14732" stroke="#3075FF" stroke-width="0.327807"/>
<rect x="23.1222" y="133.471" width="170.331" height="25.1121" stroke="#3882FF" stroke-width="0.784672"/>
<rect x="180.139" y="135.766" width="9.37734" height="20.8506" rx="3.54135" stroke="#3882FF" stroke-width="0.784672"/>
<circle cx="184.991" cy="137.669" r="1.14732" stroke="#3075FF" stroke-width="0.327807"/>
<circle cx="184.991" cy="155.043" r="1.14732" stroke="#3075FF" stroke-width="0.327807"/>
<path d="M193.844 158.976H204.006C206.178 158.976 207.939 157.215 207.939 155.042V137.013C207.939 134.841 206.178 133.08 204.006 133.08H193.844V158.976ZM201.712 152.748C202.617 152.748 203.35 153.482 203.351 154.387C203.351 155.292 202.617 156.026 201.712 156.026H198.434V152.748H201.712ZM201.712 136.031C202.617 136.031 203.351 136.765 203.351 137.67C203.35 138.575 202.617 139.309 201.712 139.309H198.434V136.031H201.712Z" fill="#003691"/>
<rect x="152.979" y="137.981" width="23.9325" height="16.8704" rx="2.94252" stroke="#3882FF" stroke-width="0.392336"/>
<rect x="156.085" y="141.088" width="17.7196" height="1.90128" stroke="#3882FF" stroke-width="0.327807"/>
<rect x="156.085" y="144.06" width="17.7196" height="1.90128" stroke="#3882FF" stroke-width="0.327807"/>
<rect x="156.085" y="147.032" width="17.7196" height="1.90128" stroke="#3882FF" stroke-width="0.327807"/>
<rect x="156.085" y="150.004" width="17.7196" height="1.90128" stroke="#3882FF" stroke-width="0.327807"/>
<path d="M40.4076 143.796L41.5136 139.904L42.5076 140.072L41.7096 142.83H44.1596C44.4396 141.738 44.6636 140.604 44.8316 139.4L45.8536 139.526C45.6716 140.702 45.4476 141.794 45.1956 142.83H51.7476V143.796H44.9296C44.7616 144.356 44.5936 144.888 44.3976 145.392H50.1236V146.26C49.7456 147.464 48.9896 148.556 47.8416 149.536C48.9756 150.208 50.3616 150.824 51.9856 151.384L51.4676 152.322C49.6756 151.664 48.1916 150.95 47.0156 150.18C45.8676 150.992 44.4396 151.72 42.7456 152.378L42.2136 151.44C43.7816 150.866 45.0836 150.236 46.1336 149.55C45.0416 148.71 44.2716 147.8 43.8096 146.82C42.7876 149.032 41.4716 150.782 39.8756 152.084L39.3576 151.16C41.4016 149.368 42.8996 146.918 43.8796 143.796H40.4076ZM44.5656 146.316C45.0416 147.268 45.8396 148.15 46.9596 148.962C47.9956 148.15 48.7096 147.268 49.1016 146.316H44.5656ZM48.2056 139.512C49.2136 140.282 50.0396 141.052 50.7116 141.822L49.9976 142.536C49.4096 141.794 48.5836 141.01 47.5336 140.17L48.2056 139.512ZM55.3176 143.572V144.776H58.5376V143.572H55.3176ZM58.5376 142.76V141.542H55.3176V142.76H58.5376ZM55.3176 145.588V146.848H58.5376V145.588H55.3176ZM53.5256 146.848H54.3796V140.702H55.9476C56.1436 140.296 56.2976 139.876 56.3956 139.442L57.4036 139.582C57.2916 139.974 57.1516 140.352 56.9556 140.702H59.4616V150.852C59.4616 151.734 59.0556 152.182 58.2576 152.182H56.5916L56.3396 151.23L57.9356 151.272C58.3276 151.272 58.5376 151.062 58.5376 150.656V148.318C57.3336 149.606 55.7656 150.67 53.8056 151.496L53.3016 150.642C55.3036 149.872 56.8996 148.906 58.0756 147.73H53.5256V146.848ZM61.1976 144.902C61.8696 145.882 62.4716 146.974 62.9756 148.178L62.1496 148.598C61.6176 147.338 61.0296 146.232 60.3856 145.252L61.1976 144.902ZM60.1756 142.242H63.8436V139.47H64.8516V142.242H66.1116V143.208H64.8516V150.908C64.8516 151.832 64.4036 152.294 63.5076 152.294H61.5476L61.3236 151.3C61.9676 151.342 62.5696 151.37 63.1576 151.37C63.6056 151.37 63.8436 151.132 63.8436 150.656V143.208H60.1756V142.242ZM73.4196 139.484H74.1476C75.9256 141.542 77.9836 143.166 80.3076 144.342L79.7616 145.308C77.4236 144.048 75.4356 142.41 73.7836 140.394C72.2576 142.298 70.2416 143.936 67.7496 145.336L67.2176 144.37C69.7096 143.054 71.7676 141.43 73.4196 139.484ZM78.2076 146.68V152.322H77.2276V151.482H70.3396V152.322H69.3596V146.68H78.2076ZM70.3396 150.516H77.2276V147.632H70.3396V150.516ZM70.1436 143.936H77.4236V144.902H70.1436V143.936ZM82.0576 140.058H86.3696V144.454H84.9696V146.708H86.4256V147.66H84.9696V150.264C85.5856 150.068 86.1876 149.872 86.7476 149.662V150.67C85.2916 151.216 83.5836 151.72 81.6376 152.182L81.3576 151.202L82.0996 151.034V145.952H82.9956V150.81C83.3456 150.726 83.6956 150.628 84.0316 150.544V144.454H82.0576V140.058ZM85.4036 143.53V140.982H83.0376V143.53H85.4036ZM93.0476 147.1V152.294H92.0816V151.678H88.5536V152.294H87.5876V147.1H93.0476ZM88.5536 150.754H92.0816V148.01H88.5536V150.754ZM89.0156 139.47L89.9816 139.652C89.8696 140.002 89.7436 140.338 89.6036 140.674H93.0756V141.402C92.5996 142.578 91.8996 143.614 90.9896 144.51C91.9136 145.266 93.0336 145.854 94.3356 146.26L93.7616 147.086C92.3756 146.638 91.2136 145.994 90.2756 145.154C89.3236 145.924 88.2036 146.582 86.8876 147.142L86.2856 146.33C87.5736 145.812 88.6656 145.196 89.5896 144.468C89.0856 143.922 88.6656 143.334 88.3156 142.69C87.9516 143.11 87.5456 143.488 87.0976 143.852L86.4956 143.054C87.7276 142.088 88.5676 140.898 89.0156 139.47ZM88.8896 141.92C89.2676 142.648 89.7296 143.306 90.2896 143.866C91.0036 143.166 91.5776 142.41 92.0116 141.57H89.1276C89.0436 141.682 88.9736 141.808 88.8896 141.92ZM96.7436 140.03H101.014V143.432H96.7436V140.03ZM100.09 142.578V140.898H97.6536V142.578H100.09ZM102.568 140.03H106.922V143.432H102.568V140.03ZM106.012 142.578V140.898H103.492V142.578H106.012ZM95.6096 144.832H100.328C100.594 144.468 100.804 144.09 100.972 143.698L101.938 143.796C101.798 144.16 101.616 144.496 101.42 144.832H105.032C104.836 144.482 104.626 144.16 104.402 143.88L105.256 143.6C105.55 143.992 105.802 144.398 106.026 144.832H107.958V145.728H104.178C105.088 146.568 106.446 147.24 108.252 147.73L107.846 148.584C107.496 148.472 107.174 148.346 106.866 148.234V152.35H105.97V151.748H103.352V152.35H102.456V147.94H106.194C104.85 147.324 103.814 146.582 103.114 145.728H100.748C99.9636 146.624 98.9136 147.352 97.5976 147.94H101.112V152.35H100.216V151.748H97.8216V152.35H96.9396V148.22C96.5616 148.36 96.1836 148.486 95.7916 148.612L95.3296 147.786C97.1216 147.254 98.4936 146.568 99.4736 145.728H95.6096V144.832ZM97.8216 150.88H100.216V148.78H97.8216V150.88ZM103.352 150.88H105.97V148.78H103.352V150.88Z" fill="black"/>
<rect x="115.177" y="136.326" width="32.2153" height="18.8321" stroke="#3882FF" stroke-width="0.784672"/>
<path d="M125.287 142.211H126.229V146.655H127.246V147.474H126.229V148.934H125.25V147.474H121.973V146.504L125.287 142.211ZM125.221 143.51L122.811 146.655H125.25V143.51H125.221ZM130.255 142.079C131.046 142.079 131.658 142.408 132.091 143.077C132.487 143.698 132.685 144.527 132.685 145.572C132.685 146.608 132.487 147.446 132.091 148.067C131.658 148.727 131.046 149.066 130.255 149.066C129.464 149.066 128.852 148.727 128.419 148.067C128.024 147.446 127.826 146.617 127.826 145.572C127.826 144.518 128.024 143.689 128.419 143.077C128.852 142.408 129.464 142.079 130.255 142.079ZM130.255 142.945C129.7 142.945 129.314 143.246 129.088 143.859C128.918 144.273 128.843 144.847 128.843 145.572C128.843 146.288 128.918 146.862 129.088 147.286C129.314 147.889 129.7 148.199 130.255 148.199C130.801 148.199 131.197 147.889 131.423 147.286C131.583 146.862 131.668 146.288 131.668 145.572C131.668 144.847 131.583 144.273 131.423 143.859C131.197 143.246 130.801 142.945 130.255 142.945ZM133.971 142.211H138.02V143.115H134.8L134.602 145.054H134.63C134.837 144.838 135.073 144.687 135.346 144.593C135.591 144.489 135.873 144.442 136.174 144.442C136.805 144.442 137.323 144.649 137.719 145.064C138.114 145.478 138.321 146.043 138.321 146.768C138.321 147.465 138.058 148.03 137.549 148.472C137.069 148.868 136.494 149.066 135.826 149.066C135.223 149.066 134.705 148.896 134.272 148.567C133.792 148.209 133.528 147.71 133.481 147.088H134.489C134.527 147.465 134.677 147.757 134.931 147.945C135.157 148.115 135.459 148.199 135.835 148.199C136.25 148.199 136.598 148.067 136.881 147.813C137.163 147.55 137.304 147.211 137.304 146.777C137.304 146.307 137.182 145.939 136.937 145.676C136.692 145.412 136.353 145.28 135.901 145.28C135.6 145.28 135.346 145.327 135.12 145.44C134.875 145.553 134.696 145.732 134.564 145.977H133.604L133.971 142.211Z" fill="#3882FF"/>
<path d="M22.7271 192.719H12.565C10.3926 192.719 8.63145 190.958 8.63141 188.786V170.756C8.63141 168.584 10.3925 166.823 12.565 166.823H22.7271V192.719ZM14.8589 186.492C13.9538 186.492 13.2203 187.225 13.2203 188.13C13.2203 189.036 13.9537 189.769 14.8589 189.769H18.1373V186.492H14.8589ZM14.8589 169.774C13.9537 169.774 13.2203 170.508 13.2203 171.414C13.2205 172.319 13.9539 173.052 14.8589 173.052H18.1373V169.774H14.8589Z" fill="#003691"/>
<rect x="27.0546" y="169.513" width="9.37734" height="20.8506" rx="3.54135" stroke="#3882FF" stroke-width="0.784672"/>
<circle cx="31.906" cy="171.416" r="1.14732" stroke="#3075FF" stroke-width="0.327807"/>
<circle cx="31.906" cy="188.79" r="1.14732" stroke="#3075FF" stroke-width="0.327807"/>
<rect x="23.1222" y="167.22" width="170.331" height="25.1121" stroke="#3882FF" stroke-width="0.784672"/>
<rect x="180.139" y="169.513" width="9.37734" height="20.8506" rx="3.54135" stroke="#3882FF" stroke-width="0.784672"/>
<circle cx="184.991" cy="171.416" r="1.14732" stroke="#3075FF" stroke-width="0.327807"/>
<circle cx="184.991" cy="188.79" r="1.14732" stroke="#3075FF" stroke-width="0.327807"/>
<path d="M193.844 192.719H204.006C206.178 192.719 207.939 190.958 207.939 188.786V170.756C207.939 168.584 206.178 166.823 204.006 166.823H193.844V192.719ZM201.712 186.492C202.617 186.492 203.35 187.225 203.351 188.13C203.351 189.036 202.617 189.769 201.712 189.769H198.434V186.492H201.712ZM201.712 169.774C202.617 169.774 203.351 170.508 203.351 171.414C203.35 172.319 202.617 173.052 201.712 173.052H198.434V169.774H201.712Z" fill="#003691"/>
<rect x="152.979" y="171.729" width="23.9325" height="16.8704" rx="2.94252" stroke="#3882FF" stroke-width="0.392336"/>
<rect x="156.085" y="174.836" width="17.7196" height="1.90128" stroke="#3882FF" stroke-width="0.327807"/>
<rect x="156.085" y="177.808" width="17.7196" height="1.90128" stroke="#3882FF" stroke-width="0.327807"/>
<rect x="156.085" y="180.78" width="17.7196" height="1.90128" stroke="#3882FF" stroke-width="0.327807"/>
<rect x="156.085" y="183.752" width="17.7196" height="1.90128" stroke="#3882FF" stroke-width="0.327807"/>
<path d="M46.1896 175.869C46.5536 176.499 46.8756 177.185 47.1836 177.941H48.5556C48.9476 177.241 49.2696 176.499 49.5496 175.715L50.5016 176.051C50.2356 176.751 49.9416 177.381 49.6196 177.941H51.8876V178.907H44.0756V177.941H46.2176C45.9376 177.325 45.6576 176.765 45.3636 176.261L46.1896 175.869ZM48.0376 173.419C48.1916 173.811 48.3456 174.259 48.4996 174.749H51.6356V175.673H44.3976V174.749H47.4776C47.3236 174.329 47.1556 173.937 46.9876 173.587L48.0376 173.419ZM41.0516 186.215H39.8336L39.6236 185.235C40.0016 185.263 40.3656 185.291 40.7016 185.291C41.0656 185.291 41.2616 185.109 41.2616 184.745V181.301C40.7016 181.525 40.1276 181.735 39.5536 181.917L39.3016 180.909C39.9596 180.741 40.6176 180.531 41.2616 180.279V177.157H39.5536V176.191H41.2616V173.545H42.2976V176.191H43.4596V177.157H42.2976V179.845C42.6896 179.649 43.0816 179.453 43.4736 179.243V180.265C43.0816 180.475 42.6896 180.671 42.2976 180.853V184.997C42.2976 185.809 41.8776 186.215 41.0516 186.215ZM46.8056 179.299L47.7716 179.411C47.6316 179.789 47.4776 180.153 47.3096 180.503H52.1116V181.483H50.5716C50.3616 182.519 49.9276 183.401 49.2696 184.115C50.2216 184.563 51.1456 185.039 52.0276 185.543L51.4816 186.355C50.6416 185.837 49.6756 185.319 48.5556 184.787C47.6316 185.459 46.1616 186.005 44.1456 186.397L43.7536 185.487C45.3776 185.193 46.6376 184.801 47.5056 184.297C46.6516 183.905 45.7416 183.527 44.7616 183.135C45.1396 182.561 45.4756 182.015 45.7696 181.483H43.8936V180.503H46.2876C46.4836 180.083 46.6516 179.691 46.8056 179.299ZM49.6196 181.483H46.7916C46.5396 181.917 46.2736 182.337 45.9936 182.729C46.8056 183.037 47.5896 183.359 48.3456 183.695C48.9756 183.107 49.3956 182.379 49.6196 181.483ZM54.0436 183.569L53.7356 182.715C53.9316 182.631 54.0436 182.519 54.0436 182.379V174.707H55.0236V182.351C55.7236 182.155 56.4236 181.917 57.1236 181.651V173.573H58.1176V186.257H57.1236V182.631C56.1436 182.981 55.1076 183.289 54.0436 183.569ZM60.9736 176.625C60.8056 177.073 60.6376 177.493 60.4556 177.885C60.9596 179.257 61.6036 180.517 62.4156 181.665C63.2556 180.237 63.7036 178.557 63.7876 176.625H60.9736ZM59.8676 178.977C59.6016 179.397 59.3216 179.775 59.0276 180.125L58.3976 179.355C59.5456 177.899 60.3296 175.925 60.7356 173.461L61.7436 173.629C61.6036 174.343 61.4496 175.015 61.2816 175.631H65.9576V176.625H64.7536C64.6556 178.921 64.0956 180.895 63.0596 182.519C63.9836 183.667 65.0476 184.689 66.2796 185.585L65.5936 186.397C64.3756 185.487 63.3256 184.479 62.4436 183.387C61.5196 184.549 60.3296 185.515 58.8736 186.299L58.2996 185.389C59.7696 184.661 60.9456 183.723 61.8136 182.575C61.0296 181.455 60.3716 180.265 59.8676 178.977ZM71.8376 173.797L72.7196 174.329C72.0616 175.491 71.4036 176.443 70.7456 177.185C70.0456 177.997 69.1076 178.795 67.9456 179.579L67.3996 178.697C68.3516 178.151 69.2196 177.437 69.9896 176.555C70.6616 175.771 71.2776 174.861 71.8376 173.797ZM72.2996 180.041H69.4716V179.075H77.8296C77.7876 180.825 77.7036 182.239 77.5636 183.317C77.4236 184.381 77.1996 185.137 76.8776 185.557C76.5696 185.963 76.0656 186.187 75.3656 186.229H72.8176L72.5376 185.235C73.3496 185.263 74.1196 185.277 74.8476 185.277C75.6036 185.277 76.0936 184.955 76.3316 184.311C76.5836 183.639 76.7376 182.225 76.8076 180.041H73.3216C72.9856 181.567 72.5236 182.785 71.9216 183.681C71.2076 184.689 70.1296 185.585 68.7016 186.383L68.0576 185.543C69.3456 184.843 70.3256 184.073 70.9836 183.233C71.5716 182.421 72.0056 181.357 72.2996 180.041ZM75.7856 173.615C76.5976 175.771 78.0396 177.479 80.1256 178.725L79.4536 179.523C77.2836 178.123 75.7716 176.317 74.9176 174.105L75.7856 173.615ZM82.0576 174.063H86.3696V178.459H84.9696V180.713H86.4256V181.665H84.9696V184.269C85.5856 184.073 86.1876 183.877 86.7476 183.667V184.675C85.2916 185.221 83.5836 185.725 81.6376 186.187L81.3576 185.207L82.0996 185.039V179.957H82.9956V184.815C83.3456 184.731 83.6956 184.633 84.0316 184.549V178.459H82.0576V174.063ZM85.4036 177.535V174.987H83.0376V177.535H85.4036ZM93.0476 181.105V186.299H92.0816V185.683H88.5536V186.299H87.5876V181.105H93.0476ZM88.5536 184.759H92.0816V182.015H88.5536V184.759ZM89.0156 173.475L89.9816 173.657C89.8696 174.007 89.7436 174.343 89.6036 174.679H93.0756V175.407C92.5996 176.583 91.8996 177.619 90.9896 178.515C91.9136 179.271 93.0336 179.859 94.3356 180.265L93.7616 181.091C92.3756 180.643 91.2136 179.999 90.2756 179.159C89.3236 179.929 88.2036 180.587 86.8876 181.147L86.2856 180.335C87.5736 179.817 88.6656 179.201 89.5896 178.473C89.0856 177.927 88.6656 177.339 88.3156 176.695C87.9516 177.115 87.5456 177.493 87.0976 177.857L86.4956 177.059C87.7276 176.093 88.5676 174.903 89.0156 173.475ZM88.8896 175.925C89.2676 176.653 89.7296 177.311 90.2896 177.871C91.0036 177.171 91.5776 176.415 92.0116 175.575H89.1276C89.0436 175.687 88.9736 175.813 88.8896 175.925ZM96.7436 174.035H101.014V177.437H96.7436V174.035ZM100.09 176.583V174.903H97.6536V176.583H100.09ZM102.568 174.035H106.922V177.437H102.568V174.035ZM106.012 176.583V174.903H103.492V176.583H106.012ZM95.6096 178.837H100.328C100.594 178.473 100.804 178.095 100.972 177.703L101.938 177.801C101.798 178.165 101.616 178.501 101.42 178.837H105.032C104.836 178.487 104.626 178.165 104.402 177.885L105.256 177.605C105.55 177.997 105.802 178.403 106.026 178.837H107.958V179.733H104.178C105.088 180.573 106.446 181.245 108.252 181.735L107.846 182.589C107.496 182.477 107.174 182.351 106.866 182.239V186.355H105.97V185.753H103.352V186.355H102.456V181.945H106.194C104.85 181.329 103.814 180.587 103.114 179.733H100.748C99.9636 180.629 98.9136 181.357 97.5976 181.945H101.112V186.355H100.216V185.753H97.8216V186.355H96.9396V182.225C96.5616 182.365 96.1836 182.491 95.7916 182.617L95.3296 181.791C97.1216 181.259 98.4936 180.573 99.4736 179.733H95.6096V178.837ZM97.8216 184.885H100.216V182.785H97.8216V184.885ZM103.352 184.885H105.97V182.785H103.352V184.885Z" fill="black"/>
<rect x="115.178" y="170.359" width="32.1715" height="18.8321" stroke="#3882FF" stroke-width="0.784672"/>
<path d="M120.813 172.326C121.491 172.326 122.028 172.487 122.442 172.816C122.837 173.146 123.045 173.598 123.045 174.172C123.045 174.906 122.668 175.405 121.933 175.65C122.329 175.773 122.63 175.961 122.837 176.206C123.063 176.46 123.176 176.79 123.176 177.185C123.176 177.807 122.96 178.315 122.536 178.711C122.084 179.106 121.491 179.313 120.775 179.313C120.088 179.313 119.532 179.134 119.118 178.786C118.647 178.39 118.384 177.816 118.327 177.063H119.363C119.382 177.515 119.523 177.863 119.805 178.108C120.05 178.334 120.37 178.447 120.766 178.447C121.199 178.447 121.547 178.315 121.811 178.07C122.037 177.844 122.159 177.571 122.159 177.232C122.159 176.837 122.037 176.545 121.792 176.357C121.566 176.168 121.227 176.074 120.785 176.074H120.295V175.302H120.775C121.19 175.302 121.5 175.208 121.707 175.029C121.915 174.85 122.028 174.586 122.028 174.247C122.028 173.908 121.924 173.654 121.736 173.475C121.529 173.287 121.218 173.202 120.822 173.202C120.417 173.202 120.097 173.306 119.871 173.513C119.645 173.72 119.504 174.031 119.466 174.445H118.459C118.515 173.777 118.76 173.259 119.203 172.882C119.617 172.505 120.154 172.326 120.813 172.326Z" fill="#3882FF"/>
<path d="M129.273 180.306H130.214V184.75H131.231V185.57H130.214V187.029H129.235V185.57H125.958V184.6L129.273 180.306ZM129.207 181.605L126.796 184.75H129.235V181.605H129.207ZM132.31 180.306H136.359V181.21H133.139L132.941 183.15H132.969C133.177 182.933 133.412 182.782 133.685 182.688C133.93 182.585 134.212 182.538 134.514 182.538C135.145 182.538 135.662 182.745 136.058 183.159C136.453 183.573 136.661 184.138 136.661 184.863C136.661 185.56 136.397 186.125 135.888 186.568C135.408 186.963 134.834 187.161 134.165 187.161C133.563 187.161 133.045 186.991 132.612 186.662C132.131 186.304 131.868 185.805 131.821 185.183H132.828C132.866 185.56 133.017 185.852 133.271 186.04C133.497 186.21 133.798 186.295 134.175 186.295C134.589 186.295 134.937 186.163 135.22 185.908C135.502 185.645 135.644 185.306 135.644 184.873C135.644 184.402 135.521 184.035 135.276 183.771C135.032 183.507 134.693 183.376 134.241 183.376C133.939 183.376 133.685 183.423 133.459 183.536C133.214 183.649 133.035 183.828 132.904 184.072H131.943L132.31 180.306Z" fill="#3882FF"/>
<circle cx="141.464" cy="173.891" r="1.56934" stroke="#3882FF" stroke-width="0.392336"/>
<circle cx="141.464" cy="179.384" r="1.56934" stroke="#3882FF" stroke-width="0.392336"/>
<circle cx="141.464" cy="184.877" r="1.56934" stroke="#3882FF" stroke-width="0.392336"/>
<path d="M22.7271 226.468H12.565C10.3926 226.468 8.63145 224.707 8.63141 222.534V204.505C8.63141 202.333 10.3925 200.571 12.565 200.571H22.7271V226.468ZM14.8589 220.24C13.9538 220.24 13.2203 220.974 13.2203 221.879C13.2203 222.784 13.9537 223.518 14.8589 223.518H18.1373V220.24H14.8589ZM14.8589 203.523C13.9537 203.523 13.2203 204.257 13.2203 205.162C13.2205 206.067 13.9539 206.801 14.8589 206.801H18.1373V203.523H14.8589Z" fill="#003691"/>
<rect x="27.0546" y="203.262" width="9.37734" height="20.8506" rx="3.54135" stroke="#3882FF" stroke-width="0.784672"/>
<circle cx="31.906" cy="205.165" r="1.14732" stroke="#3075FF" stroke-width="0.327807"/>
<circle cx="31.906" cy="222.539" r="1.14732" stroke="#3075FF" stroke-width="0.327807"/>
<rect x="23.1222" y="200.969" width="170.331" height="25.1121" stroke="#3882FF" stroke-width="0.784672"/>
<rect x="180.139" y="203.262" width="9.37734" height="20.8506" rx="3.54135" stroke="#3882FF" stroke-width="0.784672"/>
<circle cx="184.991" cy="205.165" r="1.14732" stroke="#3075FF" stroke-width="0.327807"/>
<circle cx="184.991" cy="222.539" r="1.14732" stroke="#3075FF" stroke-width="0.327807"/>
<path d="M193.844 226.468H204.006C206.178 226.468 207.939 224.707 207.939 222.534V204.505C207.939 202.333 206.178 200.571 204.006 200.571H193.844V226.468ZM201.712 220.24C202.617 220.24 203.35 220.974 203.351 221.879C203.351 222.784 202.617 223.518 201.712 223.518H198.434V220.24H201.712ZM201.712 203.523C202.617 203.523 203.351 204.257 203.351 205.162C203.35 206.067 202.617 206.801 201.712 206.801H198.434V203.523H201.712Z" fill="#003691"/>
<rect x="152.979" y="205.478" width="23.9325" height="16.8704" rx="2.94252" stroke="#3882FF" stroke-width="0.392336"/>
<rect x="156.085" y="208.584" width="17.7196" height="1.90128" stroke="#3882FF" stroke-width="0.327807"/>
<rect x="156.085" y="211.557" width="17.7196" height="1.90128" stroke="#3882FF" stroke-width="0.327807"/>
<rect x="156.085" y="214.529" width="17.7196" height="1.90128" stroke="#3882FF" stroke-width="0.327807"/>
<rect x="156.085" y="217.501" width="17.7196" height="1.90128" stroke="#3882FF" stroke-width="0.327807"/>
<path d="M40.5756 210.317C41.4436 211.339 42.2556 212.361 43.0116 213.383C43.4596 212.039 43.7536 210.597 43.8656 209.057H39.7776V208.091H44.8316V208.861C44.7196 210.905 44.3556 212.739 43.7256 214.377C44.3556 215.273 44.9296 216.183 45.4616 217.079L44.6916 217.863C44.2716 217.079 43.7816 216.295 43.2496 215.483C42.4656 217.065 41.4156 218.451 40.0716 219.627L39.3856 218.843C40.7576 217.639 41.8216 216.183 42.5776 214.503C41.7656 213.369 40.8556 212.207 39.8476 211.017L40.5756 210.317ZM45.6996 208.091H51.4536V208.987C51.1456 211.255 50.3896 213.383 49.1716 215.399C49.9556 216.687 50.9496 217.933 52.1816 219.151L51.4816 219.977C50.3056 218.773 49.3256 217.555 48.5696 216.323C47.6736 217.597 46.5956 218.815 45.3356 219.977L44.6496 219.137C45.9936 217.947 47.1136 216.687 48.0096 215.371C46.9036 213.327 46.2876 211.227 46.1616 209.057H45.6996V208.091ZM47.0716 209.057C47.1836 210.905 47.7016 212.683 48.6116 214.419C49.5636 212.739 50.1936 210.947 50.5016 209.057H47.0716ZM59.2796 209.295H54.4776V208.329H65.1316V209.295H60.3156V218.157H66.0416V219.123H53.5396V218.157H59.2796V209.295ZM68.7436 207.783H73.0136V211.185H68.7436V207.783ZM72.0896 210.331V208.651H69.6536V210.331H72.0896ZM74.5676 207.783H78.9216V211.185H74.5676V207.783ZM78.0116 210.331V208.651H75.4916V210.331H78.0116ZM67.6096 212.585H72.3276C72.5936 212.221 72.8036 211.843 72.9716 211.451L73.9376 211.549C73.7976 211.913 73.6156 212.249 73.4196 212.585H77.0316C76.8356 212.235 76.6256 211.913 76.4016 211.633L77.2556 211.353C77.5496 211.745 77.8016 212.151 78.0256 212.585H79.9576V213.481H76.1776C77.0876 214.321 78.4456 214.993 80.2516 215.483L79.8456 216.337C79.4956 216.225 79.1736 216.099 78.8656 215.987V220.103H77.9696V219.501H75.3516V220.103H74.4556V215.693H78.1936C76.8496 215.077 75.8136 214.335 75.1136 213.481H72.7476C71.9636 214.377 70.9136 215.105 69.5976 215.693H73.1116V220.103H72.2156V219.501H69.8216V220.103H68.9396V215.973C68.5616 216.113 68.1836 216.239 67.7916 216.365L67.3296 215.539C69.1216 215.007 70.4936 214.321 71.4736 213.481H67.6096V212.585ZM69.8216 218.633H72.2156V216.533H69.8216V218.633ZM75.3516 218.633H77.9696V216.533H75.3516V218.633Z" fill="black"/>
<rect x="115.178" y="204.108" width="32.1715" height="18.8321" stroke="#3882FF" stroke-width="0.784672"/>
<path d="M120.813 206.075C121.491 206.075 122.028 206.235 122.442 206.565C122.837 206.894 123.045 207.346 123.045 207.921C123.045 208.655 122.668 209.154 121.933 209.399C122.329 209.521 122.63 209.71 122.837 209.955C123.063 210.209 123.176 210.538 123.176 210.934C123.176 211.555 122.96 212.064 122.536 212.459C122.084 212.855 121.491 213.062 120.775 213.062C120.088 213.062 119.532 212.883 119.118 212.535C118.647 212.139 118.384 211.565 118.327 210.811H119.363C119.382 211.263 119.523 211.612 119.805 211.857C120.05 212.083 120.37 212.196 120.766 212.196C121.199 212.196 121.547 212.064 121.811 211.819C122.037 211.593 122.159 211.32 122.159 210.981C122.159 210.585 122.037 210.294 121.792 210.105C121.566 209.917 121.227 209.823 120.785 209.823H120.295V209.051H120.775C121.19 209.051 121.5 208.956 121.707 208.778C121.915 208.599 122.028 208.335 122.028 207.996C122.028 207.657 121.924 207.403 121.736 207.224C121.529 207.036 121.218 206.951 120.822 206.951C120.417 206.951 120.097 207.054 119.871 207.262C119.645 207.469 119.504 207.779 119.466 208.194H118.459C118.515 207.525 118.76 207.007 119.203 206.631C119.617 206.254 120.154 206.075 120.813 206.075Z" fill="#3882FF"/>
<path d="M129.273 214.055H130.214V218.499H131.231V219.318H130.214V220.778H129.235V219.318H125.958V218.348L129.273 214.055ZM129.207 215.354L126.796 218.499H129.235V215.354H129.207ZM132.31 214.055H136.359V214.959H133.139L132.941 216.898H132.969C133.177 216.682 133.412 216.531 133.685 216.437C133.93 216.333 134.212 216.286 134.514 216.286C135.145 216.286 135.662 216.493 136.058 216.908C136.453 217.322 136.661 217.887 136.661 218.612C136.661 219.309 136.397 219.874 135.888 220.316C135.408 220.712 134.834 220.91 134.165 220.91C133.563 220.91 133.045 220.74 132.612 220.41C132.131 220.053 131.868 219.554 131.821 218.932H132.828C132.866 219.309 133.017 219.601 133.271 219.789C133.497 219.959 133.798 220.043 134.175 220.043C134.589 220.043 134.937 219.911 135.22 219.657C135.502 219.394 135.644 219.055 135.644 218.621C135.644 218.151 135.521 217.783 135.276 217.52C135.032 217.256 134.693 217.124 134.241 217.124C133.939 217.124 133.685 217.171 133.459 217.284C133.214 217.397 133.035 217.576 132.904 217.821H131.943L132.31 214.055Z" fill="#3882FF"/>
<circle cx="141.464" cy="207.64" r="1.56934" stroke="#3882FF" stroke-width="0.392336"/>
<circle cx="141.464" cy="213.133" r="1.56934" stroke="#3882FF" stroke-width="0.392336"/>
<circle cx="141.464" cy="218.625" r="1.56934" stroke="#3882FF" stroke-width="0.392336"/>
<path d="M22.7271 260.218H12.565C10.3927 260.217 8.6316 258.456 8.63141 256.284V238.255C8.63141 236.082 10.3925 234.32 12.565 234.32H22.7271V260.218ZM14.8589 253.989C13.9537 253.989 13.2203 254.723 13.2203 255.629C13.2204 256.534 13.9538 257.267 14.8589 257.267H18.1373V253.989H14.8589ZM14.8589 237.272C13.9539 237.272 13.2205 238.006 13.2203 238.911C13.2203 239.816 13.9537 240.551 14.8589 240.551H18.1373V237.272H14.8589Z" fill="#003691"/>
<rect x="27.0546" y="237.008" width="9.37734" height="20.8506" rx="3.54135" stroke="#3882FF" stroke-width="0.784672"/>
<circle cx="31.906" cy="238.91" r="1.14732" stroke="#3075FF" stroke-width="0.327807"/>
<circle cx="31.906" cy="256.284" r="1.14732" stroke="#3075FF" stroke-width="0.327807"/>
<rect x="23.1222" y="234.713" width="170.331" height="25.1121" stroke="#3882FF" stroke-width="0.784672"/>
<rect x="180.139" y="237.008" width="9.37734" height="20.8506" rx="3.54135" stroke="#3882FF" stroke-width="0.784672"/>
<circle cx="184.991" cy="238.91" r="1.14732" stroke="#3075FF" stroke-width="0.327807"/>
<circle cx="184.991" cy="256.284" r="1.14732" stroke="#3075FF" stroke-width="0.327807"/>
<path d="M193.844 260.218H204.006C206.178 260.217 207.939 258.456 207.939 256.284V238.255C207.939 236.082 206.178 234.32 204.006 234.32H193.844V260.218ZM201.712 253.989C202.617 253.989 203.351 254.723 203.351 255.629C203.35 256.534 202.617 257.267 201.712 257.267H198.434V253.989H201.712ZM201.712 237.272C202.617 237.272 203.35 238.006 203.351 238.911C203.351 239.816 202.617 240.551 201.712 240.551H198.434V237.272H201.712Z" fill="#003691"/>
<rect x="152.979" y="239.223" width="23.9325" height="16.8704" rx="2.94252" stroke="#3882FF" stroke-width="0.392336"/>
<rect x="156.085" y="242.33" width="17.7196" height="1.90128" stroke="#3882FF" stroke-width="0.327807"/>
<rect x="156.085" y="245.302" width="17.7196" height="1.90128" stroke="#3882FF" stroke-width="0.327807"/>
<rect x="156.085" y="248.274" width="17.7196" height="1.90128" stroke="#3882FF" stroke-width="0.327807"/>
<rect x="156.085" y="251.246" width="17.7196" height="1.90128" stroke="#3882FF" stroke-width="0.327807"/>
<path d="M48.8571 242.6H49.8931V247.794H55.4931V248.788H51.4751V253.478C51.4751 253.898 51.6711 254.108 52.0631 254.108H53.7571C54.0651 254.108 54.2891 254.01 54.4291 253.814C54.5971 253.562 54.7091 252.848 54.7651 251.644L55.7311 251.952C55.6331 253.436 55.4371 254.332 55.1571 254.64C54.9051 254.92 54.4991 255.06 53.9391 255.06H51.7551C50.8871 255.06 50.4671 254.598 50.4671 253.688V248.788H48.1011V248.886C48.0591 250.636 47.6811 252.036 46.9671 253.1C46.2671 254.08 45.1191 254.836 43.5371 255.382L42.9631 254.486C44.5031 253.954 45.5671 253.268 46.1831 252.4C46.7431 251.504 47.0511 250.328 47.0791 248.886V248.788H43.2711V247.794H48.8571V242.6ZM53.5051 243.272L54.4431 243.72C53.9671 244.868 53.3371 245.988 52.5671 247.066L51.6571 246.604C52.4271 245.484 53.0431 244.364 53.5051 243.272ZM45.2871 243.398C45.9731 244.378 46.6171 245.442 47.2331 246.604L46.2951 247.066C45.6791 245.862 45.0211 244.798 44.3351 243.846L45.2871 243.398ZM61.9331 252.582V253.562C60.5191 254.08 58.9091 254.5 57.1171 254.836L56.9911 253.842C58.8671 253.52 60.5191 253.1 61.9331 252.582ZM59.3711 242.544L60.3371 242.936C59.6231 244.756 58.9091 246.198 58.1811 247.276C58.8391 247.206 59.4971 247.108 60.1691 246.982C60.4351 246.478 60.7151 245.96 60.9951 245.414L61.9191 245.75C60.6591 248.102 59.6231 249.768 58.7831 250.776C59.7911 250.58 60.7851 250.328 61.7791 250.006V250.902C60.2951 251.406 58.8671 251.742 57.5091 251.938L57.2431 250.972C57.4251 250.888 57.5791 250.79 57.7051 250.678C58.2371 250.132 58.8951 249.208 59.6651 247.892L57.2431 248.312L56.9631 247.318C57.1311 247.248 57.2851 247.108 57.4251 246.912C58.1671 245.652 58.8111 244.196 59.3711 242.544ZM61.7231 248.34H65.2231V244.826C64.3271 244.994 63.3891 245.148 62.4091 245.26L62.1991 244.308C64.6351 244.056 66.8051 243.594 68.6811 242.894L69.0311 243.818C68.1631 244.126 67.2251 244.392 66.2311 244.616V248.34H69.7451V249.306H66.2311V255.382H65.2231V249.306H61.7231V248.34ZM79.9511 247.472H77.2071C77.0951 249.74 76.5491 251.574 75.5971 252.946L74.8971 252.218C75.7651 250.986 76.2271 249.278 76.2971 247.094V243.468C78.4531 243.426 80.3851 243.174 82.1211 242.698L82.5971 243.58C81.0011 244 79.2091 244.252 77.2351 244.322V246.506H83.3671V247.472H80.9311V253.366H79.9511V247.472ZM72.1671 242.782C73.0911 243.524 73.8751 244.266 74.5191 245.008L73.7911 245.722C73.2311 245.022 72.4611 244.252 71.4811 243.44L72.1671 242.782ZM80.3011 255.186C79.5451 255.186 78.7191 255.172 77.8371 255.158C76.9411 255.13 76.2271 255.046 75.6671 254.906C75.1211 254.738 74.6311 254.388 74.1971 253.87C74.0151 253.632 73.8331 253.52 73.6651 253.52C73.3291 253.52 72.7831 254.164 72.0131 255.452L71.2571 254.766C71.9991 253.59 72.6571 252.876 73.2311 252.624V248.368H71.2291V247.444H74.1691V252.694C74.2811 252.778 74.3931 252.89 74.5051 253.016C74.8411 253.408 75.1911 253.702 75.5831 253.898C76.0031 254.094 76.6331 254.192 77.4451 254.22C78.1731 254.234 79.0831 254.248 80.1611 254.248C80.8331 254.248 81.5051 254.234 82.2051 254.234C82.8911 254.22 83.4231 254.206 83.7871 254.178L83.5351 255.186H80.3011ZM84.9771 244.924H86.8111C86.6151 244.196 86.4051 243.524 86.1671 242.922L87.1751 242.754C87.3711 243.384 87.5671 244.112 87.7631 244.924H89.4011V245.876H84.9771V244.924ZM86.1251 246.702C86.4191 248.298 86.6851 250.146 86.9231 252.218L86.0971 252.428C85.8871 250.538 85.6211 248.718 85.2991 246.968L86.1251 246.702ZM89.3871 252.344V253.31C88.0991 253.814 86.6991 254.22 85.2011 254.556L84.9491 253.562C85.7751 253.422 86.5871 253.24 87.3711 253.016C87.7071 250.972 87.9451 248.816 88.0991 246.52L89.0091 246.646C88.8411 248.844 88.5751 250.874 88.2391 252.75C88.6311 252.61 89.0231 252.484 89.3871 252.344ZM96.0371 245.302V243.16H96.9891V246.184H90.3251V243.16H91.2911V245.302H93.1531V242.614H94.1331V245.302H96.0371ZM89.7231 247.36H97.6891V248.284H94.0071C93.9091 248.746 93.7691 249.194 93.6011 249.628H97.2831V254.318C97.2831 255.018 96.9891 255.368 96.4011 255.368H95.7571L95.5191 254.458L96.0931 254.5C96.2751 254.5 96.3731 254.374 96.3731 254.122V250.524H95.1131V255.144H94.2591V250.524H93.1251V255.158H92.2711V250.524H91.0391V255.368H90.1291V249.628H92.6211C92.7891 249.194 92.9291 248.746 93.0131 248.284H89.7231V247.36ZM99.1871 245.33H101.273V242.6H102.281V245.33H104.017V246.296H102.281V247.01C102.925 247.682 103.583 248.424 104.255 249.25L103.667 250.118C103.135 249.236 102.673 248.522 102.281 247.976V255.354H101.273V248.242C100.783 249.642 100.139 250.902 99.3551 252.05L98.9211 250.958C99.9991 249.6 100.769 248.046 101.231 246.296H99.1871V245.33ZM103.359 254.738C103.961 253.856 104.381 252.918 104.619 251.924C104.801 251.07 104.899 249.922 104.899 248.48V243.174H109.421V253.772C109.421 254.01 109.519 254.136 109.743 254.136H110.219C110.387 254.136 110.513 254.108 110.611 254.052C110.723 253.968 110.793 253.842 110.821 253.646C110.877 253.366 110.919 252.568 110.919 251.224L111.843 251.518C111.843 252.526 111.801 253.282 111.745 253.814C111.689 254.318 111.549 254.654 111.325 254.85C111.101 255.004 110.765 255.088 110.317 255.088H109.743C108.847 255.088 108.399 254.682 108.399 253.87V244.126H105.907V248.48C105.907 250.02 105.781 251.308 105.529 252.344C105.291 253.436 104.843 254.472 104.185 255.48L103.359 254.738Z" fill="black"/>
<rect x="115.176" y="238.12" width="32.1715" height="18.8321" stroke="#3882FF" stroke-width="0.784672"/>
<path d="M120.812 240.088C121.49 240.088 122.026 240.248 122.441 240.577C122.836 240.907 123.043 241.359 123.043 241.933C123.043 242.668 122.667 243.167 121.932 243.412C122.328 243.534 122.629 243.722 122.836 243.967C123.062 244.221 123.175 244.551 123.175 244.946C123.175 245.568 122.958 246.076 122.535 246.472C122.083 246.867 121.49 247.075 120.774 247.075C120.087 247.075 119.531 246.896 119.117 246.547C118.646 246.152 118.382 245.577 118.326 244.824H119.361C119.38 245.276 119.522 245.624 119.804 245.869C120.049 246.095 120.369 246.208 120.764 246.208C121.198 246.208 121.546 246.076 121.81 245.832C122.036 245.606 122.158 245.333 122.158 244.994C122.158 244.598 122.036 244.306 121.791 244.118C121.565 243.93 121.226 243.835 120.783 243.835H120.294V243.063H120.774C121.188 243.063 121.499 242.969 121.706 242.79C121.913 242.611 122.026 242.348 122.026 242.009C122.026 241.67 121.923 241.415 121.734 241.237C121.527 241.048 121.216 240.963 120.821 240.963C120.416 240.963 120.096 241.067 119.87 241.274C119.644 241.481 119.503 241.792 119.465 242.206H118.458C118.514 241.538 118.759 241.02 119.201 240.643C119.616 240.267 120.152 240.088 120.812 240.088Z" fill="#3882FF"/>
<path d="M129.271 248.067H130.213V252.512H131.23V253.331H130.213V254.79H129.234V253.331H125.957V252.361L129.271 248.067ZM129.205 249.367L126.795 252.512H129.234V249.367H129.205ZM132.309 248.067H136.358V248.971H133.138L132.94 250.911H132.968C133.175 250.694 133.411 250.544 133.684 250.45C133.929 250.346 134.211 250.299 134.512 250.299C135.143 250.299 135.661 250.506 136.057 250.92C136.452 251.335 136.659 251.9 136.659 252.625C136.659 253.321 136.396 253.886 135.887 254.329C135.407 254.724 134.832 254.922 134.164 254.922C133.561 254.922 133.043 254.753 132.61 254.423C132.13 254.065 131.866 253.566 131.819 252.945H132.827C132.865 253.321 133.015 253.613 133.269 253.802C133.495 253.971 133.797 254.056 134.173 254.056C134.588 254.056 134.936 253.924 135.219 253.67C135.501 253.406 135.642 253.067 135.642 252.634C135.642 252.163 135.52 251.796 135.275 251.532C135.03 251.269 134.691 251.137 134.239 251.137C133.938 251.137 133.684 251.184 133.458 251.297C133.213 251.41 133.034 251.589 132.902 251.834H131.942L132.309 248.067Z" fill="#3882FF"/>
<circle cx="141.463" cy="241.649" r="1.56934" stroke="#3882FF" stroke-width="0.392336"/>
<circle cx="141.463" cy="247.141" r="1.56934" stroke="#3882FF" stroke-width="0.392336"/>
<circle cx="141.463" cy="252.633" r="1.56934" stroke="#3882FF" stroke-width="0.392336"/>
<defs>
<filter id="filter0_d_1_105" x="4.23725" y="29.0219" width="103.734" height="33.8978" filterUnits="userSpaceOnUse" color-interpolation-filters="sRGB">
<feFlood flood-opacity="0" result="BackgroundImageFix"/>
<feColorMatrix in="SourceAlpha" type="matrix" values="0 0 0 0 0 0 0 0 0 0 0 0 0 0 0 0 0 0 127 0" result="hardAlpha"/>
<feOffset dy="0.784672"/>
<feGaussianBlur stdDeviation="2.19708"/>
<feComposite in2="hardAlpha" operator="out"/>
<feColorMatrix type="matrix" values="0 0 0 0 1 0 0 0 0 0 0 0 0 0 0 0 0 0 0.38 0"/>
<feBlend mode="normal" in2="BackgroundImageFix" result="effect1_dropShadow_1_105"/>
<feBlend mode="normal" in="SourceGraphic" in2="effect1_dropShadow_1_105" result="shape"/>
</filter>
<filter id="filter1_d_1_105" x="108.599" y="29.0219" width="103.734" height="33.8978" filterUnits="userSpaceOnUse" color-interpolation-filters="sRGB">
<feFlood flood-opacity="0" result="BackgroundImageFix"/>
<feColorMatrix in="SourceAlpha" type="matrix" values="0 0 0 0 0 0 0 0 0 0 0 0 0 0 0 0 0 0 127 0" result="hardAlpha"/>
<feOffset dy="0.784672"/>
<feGaussianBlur stdDeviation="2.19708"/>
<feComposite in2="hardAlpha" operator="out"/>
<feColorMatrix type="matrix" values="0 0 0 0 0 0 0 0 0 0.862745 0 0 0 0 0.47451 0 0 0 0.38 0"/>
<feBlend mode="normal" in2="BackgroundImageFix" result="effect1_dropShadow_1_105"/>
<feBlend mode="normal" in="SourceGraphic" in2="effect1_dropShadow_1_105" result="shape"/>
</filter>
</defs>
</svg>
