<svg width="22" height="17" viewBox="0 0 22 17" fill="none" xmlns="http://www.w3.org/2000/svg">
<path d="M1.31836 0H19.7754C20.5038 0 21.0938 0.590625 21.0938 1.31836V5.17148C21.0938 5.89992 20.5031 6.49055 19.7754 6.49055H1.31836C0.968709 6.49055 0.633379 6.35165 0.386139 6.10441C0.138898 5.85717 0 5.52184 0 5.17219V1.31836C0 0.589922 0.590625 0 1.31836 0ZM3.2857 2.59594C3.11358 2.59594 2.94851 2.66431 2.8268 2.78602C2.70509 2.90773 2.63672 3.0728 2.63672 3.24492C2.63672 3.41704 2.70509 3.58212 2.8268 3.70382C2.94851 3.82553 3.11358 3.89391 3.2857 3.89391H7.26117C7.43329 3.89391 7.59836 3.82553 7.72007 3.70382C7.84178 3.58212 7.91016 3.41704 7.91016 3.24492C7.91016 3.0728 7.84178 2.90773 7.72007 2.78602C7.59836 2.66431 7.43329 2.59594 7.26117 2.59594H3.2857ZM1.31836 10.3852H19.7754C20.5038 10.3852 21.0938 10.9758 21.0938 11.7035V15.5573C21.0938 16.2851 20.5031 16.875 19.7754 16.875H1.31836C0.968709 16.875 0.633379 16.7361 0.386139 16.4889C0.138898 16.2416 0 15.9063 0 15.5566V11.7035C0 10.9751 0.590625 10.3845 1.31836 10.3845V10.3852ZM3.2857 12.9818C3.11358 12.9818 2.94851 13.0502 2.8268 13.1719C2.70509 13.2936 2.63672 13.4587 2.63672 13.6308C2.63672 13.8029 2.70509 13.968 2.8268 14.0897C2.94851 14.2114 3.11358 14.2798 3.2857 14.2798H7.26117C7.43329 14.2798 7.59836 14.2114 7.72007 14.0897C7.84178 13.968 7.91016 13.8029 7.91016 13.6308C7.91016 13.4587 7.84178 13.2936 7.72007 13.1719C7.59836 13.0502 7.43329 12.9818 7.26117 12.9818H3.2857Z" fill="#0083FF"/>
</svg>
