<svg width="24" height="24" viewBox="0 0 24 24" fill="none" xmlns="http://www.w3.org/2000/svg">
<path d="M11.8001 8.98697C11.2543 8.98697 10.7382 8.90738 10.3464 8.76276L2.2815 5.78403C1.62085 5.53976 1.5225 5.18388 1.5225 4.99365C1.5225 4.80309 1.62118 4.44721 2.2815 4.20294L10.3461 1.22421C10.7379 1.07991 11.2539 1 11.7997 1C12.3459 1 12.8619 1.07959 13.2537 1.22421L21.3183 4.20294C21.9789 4.44721 22.0773 4.80309 22.0773 4.99365C22.0773 5.18388 21.9786 5.53976 21.3183 5.78403L13.2537 8.76276C12.8619 8.90738 12.3459 8.98697 11.8001 8.98697ZM10.0795 22.4251C9.89576 22.4251 9.69906 22.3895 9.51238 22.319L2.44812 19.6236C1.62538 19.314 1 18.3544 1 17.3923V8.40365C1 7.59709 1.43256 7.07588 2.10162 7.07588C2.27244 7.07588 2.45362 7.11147 2.64062 7.182L9.80356 9.877C10.6629 10.2005 11.3533 11.1808 11.3533 12.1087V21.0973C11.3529 21.8664 10.8075 22.4251 10.0795 22.4251ZM13.6989 22.2743H13.737C13.0618 22.2743 12.6471 21.8913 12.6471 21.0973V12.1087C12.6471 11.1498 13.2362 10.1905 14.069 9.877L21.1222 7.18232C21.3156 7.11328 21.5193 7.0773 21.7246 7.07588C22.4487 7.07588 23 7.622 23 8.40365V17.3923C23 18.3234 22.2779 19.304 21.427 19.624L14.2692 22.2436C14.0816 22.3138 13.8716 22.2743 13.6989 22.2743Z" fill="#0083FF"/>
</svg>
