<svg width="44" height="44" viewBox="0 0 44 44" fill="none" xmlns="http://www.w3.org/2000/svg">
<rect width="44" height="44" rx="22" fill="#FFF3F3"/>
<path d="M21.903 15.4492C23.5424 15.4493 25.1184 16.0823 26.3024 17.2161C27.4865 18.3499 28.1871 19.8971 28.2583 21.5349L28.2646 21.8111V27.9566L28.9008 27.9591C29.407 27.9591 29.8924 28.1602 30.2503 28.5181C30.6082 28.876 30.8093 29.3615 30.8093 29.8677C30.8093 30.3739 30.6082 30.8593 30.2503 31.2172C29.8924 31.5751 29.407 31.7762 28.9008 31.7762H14.9052C14.3991 31.7762 13.9136 31.5751 13.5557 31.2172C13.1978 30.8593 12.9967 30.3739 12.9967 29.8677C12.9967 29.3615 13.1978 28.876 13.5557 28.5181C13.9136 28.1602 14.3991 27.9591 14.9052 27.9591L15.5414 27.9579V21.8111C15.5412 20.1714 16.174 18.595 17.3078 17.4107C18.4416 16.2263 19.9889 15.5255 21.6269 15.4543L21.903 15.4492ZM28.4975 29.4033H27.3473L27.2328 29.4134C27.0764 29.4418 26.9362 29.5276 26.8399 29.6541C26.7436 29.7806 26.6982 29.9386 26.7126 30.0969C26.7269 30.2553 26.8001 30.4025 26.9175 30.5096C27.035 30.6167 27.1883 30.6759 27.3473 30.6756H28.4975L28.612 30.6642C28.767 30.6344 28.9053 30.5481 29.0002 30.422C29.0951 30.2959 29.1398 30.139 29.1255 29.9819C29.1112 29.8247 29.0391 29.6785 28.923 29.5715C28.8069 29.4646 28.6553 29.4046 28.4975 29.4033ZM23.6906 29.4033H15.3302L15.2157 29.4134C15.0593 29.4418 14.9191 29.5276 14.8228 29.6541C14.7265 29.7806 14.6811 29.9386 14.6955 30.0969C14.7098 30.2553 14.7829 30.4025 14.9004 30.5096C15.0179 30.6167 15.1712 30.6759 15.3302 30.6756H23.6906L23.8052 30.6642C23.9601 30.6344 24.0985 30.5481 24.1934 30.422C24.2883 30.2959 24.3329 30.139 24.3187 29.9819C24.3044 29.8247 24.2322 29.6785 24.1162 29.5715C24.0001 29.4646 23.8484 29.4046 23.6906 29.4033ZM22.9145 18.5818L19.3584 23.2514L20.9411 23.8227L20.0709 27.6156L23.6487 23.1839L21.9819 22.5834L22.9158 18.5818H22.9145Z" fill="#FF2727"/>
<path d="M31.5834 19.253C31.6356 19.4133 31.622 19.5877 31.5457 19.738C31.4693 19.8883 31.3365 20.0022 31.1763 20.0546L29.8047 20.4999C29.6448 20.55 29.4717 20.5349 29.3228 20.458C29.174 20.3812 29.0614 20.2487 29.0097 20.0894C28.9579 19.93 28.9711 19.7567 29.0463 19.607C29.1216 19.4574 29.2528 19.3434 29.4116 19.2899L30.7818 18.8446C30.9421 18.7924 31.1166 18.806 31.2669 18.8823C31.4172 18.9586 31.531 19.0915 31.5834 19.2517V19.253ZM13.0253 18.8446L14.3956 19.2899C14.55 19.3468 14.6764 19.4613 14.7482 19.6094C14.82 19.7576 14.8316 19.9278 14.7805 20.0842C14.7295 20.2407 14.6197 20.3713 14.4744 20.4486C14.3291 20.5259 14.1594 20.5438 14.0012 20.4986L12.6321 20.0533C12.4788 19.9957 12.3536 19.8812 12.2826 19.7336C12.2116 19.586 12.2003 19.4168 12.2509 19.261C12.3016 19.1053 12.4103 18.9751 12.5546 18.8975C12.6988 18.8199 12.8674 18.801 13.0253 18.8446ZM27.886 14.1623C27.9538 14.2114 28.0113 14.2735 28.055 14.345C28.0988 14.4164 28.128 14.4958 28.141 14.5785C28.154 14.6613 28.1506 14.7458 28.1308 14.8272C28.1111 14.9086 28.0755 14.9853 28.026 15.0529L27.1799 16.2171C27.132 16.2876 27.0705 16.3477 26.9989 16.394C26.9273 16.4402 26.8472 16.4716 26.7633 16.4862C26.6794 16.5009 26.5934 16.4986 26.5104 16.4794C26.4274 16.4602 26.3491 16.4245 26.2801 16.3745C26.2112 16.3245 26.153 16.2611 26.109 16.1881C26.065 16.1152 26.0361 16.0341 26.024 15.9498C26.0119 15.8655 26.0169 15.7795 26.0386 15.6972C26.0604 15.6148 26.0985 15.5376 26.1506 15.4703L26.998 14.3035C27.0972 14.1673 27.2465 14.076 27.413 14.0498C27.5795 14.0235 27.7497 14.0644 27.886 14.1635V14.1623ZM16.8092 14.3035L17.6565 15.4703C17.7556 15.6069 17.7963 15.7773 17.7697 15.944C17.7431 16.1107 17.6513 16.26 17.5147 16.359C17.378 16.458 17.2076 16.4987 17.0409 16.4721C16.8743 16.4455 16.725 16.3538 16.626 16.2171L15.7799 15.0516C15.6807 14.915 15.6398 14.7445 15.6663 14.5777C15.6928 14.4109 15.7844 14.2615 15.9211 14.1623C16.0578 14.0631 16.2282 14.0222 16.395 14.0487C16.5618 14.0752 16.7112 14.1668 16.8104 14.3035H16.8092ZM21.9036 12.2194C22.0723 12.2194 22.2341 12.2864 22.3534 12.4057C22.4727 12.525 22.5397 12.6868 22.5397 12.8555V14.2959C22.5397 14.4646 22.4727 14.6264 22.3534 14.7457C22.2341 14.865 22.0723 14.932 21.9036 14.932C21.7348 14.932 21.573 14.865 21.4537 14.7457C21.3344 14.6264 21.2674 14.4646 21.2674 14.2959V12.8555C21.2674 12.6868 21.3344 12.525 21.4537 12.4057C21.573 12.2864 21.7348 12.2194 21.9036 12.2194Z" fill="#FF2727"/>
</svg>
