<svg width="207" height="210" viewBox="0 0 207 210" fill="none" xmlns="http://www.w3.org/2000/svg">
<rect width="207" height="210" rx="103.5" fill="#FFF4F4"/>
<path d="M103.45 80.888C109.485 80.8883 115.288 83.2188 119.647 87.3932C124.007 91.5677 126.587 97.264 126.849 103.294L126.872 104.311V126.937L129.214 126.946C131.078 126.946 132.865 127.687 134.183 129.004C135.501 130.322 136.241 132.11 136.241 133.973C136.241 135.837 135.501 137.624 134.183 138.942C132.865 140.26 131.078 141 129.214 141H77.685C75.8214 141 74.0342 140.26 72.7164 138.942C71.3986 137.624 70.6583 135.837 70.6583 133.973C70.6583 132.11 71.3986 130.322 72.7164 129.004C74.0342 127.687 75.8214 126.946 77.685 126.946L80.0273 126.942V104.311C80.0264 98.274 82.3562 92.4701 86.5308 88.1096C90.7053 83.7491 96.4022 81.1687 102.433 80.9067L103.45 80.888ZM127.729 132.263H123.494L123.073 132.301C122.497 132.405 121.981 132.721 121.626 133.187C121.272 133.653 121.105 134.234 121.157 134.817C121.21 135.4 121.48 135.942 121.912 136.336C122.345 136.731 122.909 136.949 123.494 136.948H127.729L128.151 136.906C128.721 136.796 129.231 136.478 129.58 136.014C129.93 135.55 130.094 134.972 130.042 134.394C129.989 133.815 129.723 133.277 129.296 132.883C128.869 132.489 128.31 132.268 127.729 132.263ZM110.031 132.263H79.2496L78.828 132.301C78.2521 132.405 77.7361 132.721 77.3816 133.187C77.0271 133.653 76.8598 134.234 76.9127 134.817C76.9656 135.4 77.2348 135.942 77.6673 136.336C78.0998 136.731 78.6643 136.949 79.2496 136.948H110.031L110.453 136.906C111.023 136.796 111.533 136.478 111.882 136.014C112.232 135.55 112.396 134.972 112.344 134.394C112.291 133.815 112.025 133.277 111.598 132.883C111.171 132.489 110.612 132.268 110.031 132.263ZM107.174 92.4213L94.0807 109.614L99.9082 111.717L96.704 125.682L109.877 109.365L103.74 107.154L107.178 92.4213H107.174Z" fill="#82F14B"/>
<path d="M139.089 94.8961C139.281 95.4863 139.231 96.1286 138.95 96.6819C138.669 97.2353 138.18 97.6544 137.59 97.8474L132.54 99.487C131.952 99.6712 131.314 99.6158 130.766 99.3328C130.218 99.0498 129.804 98.562 129.613 97.9754C129.423 97.3888 129.471 96.7507 129.748 96.1996C130.025 95.6485 130.508 95.2289 131.093 95.032L136.138 93.3924C136.728 93.2003 137.37 93.2502 137.924 93.5313C138.477 93.8124 138.896 94.3016 139.089 94.8914V94.8961ZM70.7616 93.3924L75.8067 95.032C76.3754 95.2414 76.8408 95.6631 77.1051 96.2085C77.3694 96.7538 77.412 97.3804 77.224 97.9566C77.036 98.5327 76.632 99.0135 76.0969 99.298C75.5618 99.5826 74.9373 99.6486 74.3545 99.4823L69.3141 97.8427C68.7496 97.6306 68.2887 97.209 68.0273 96.6656C67.7658 96.1223 67.724 95.499 67.9105 94.9256C68.097 94.3522 68.4975 93.8728 69.0285 93.5872C69.5596 93.3016 70.1803 93.2318 70.7616 93.3924ZM125.476 76.1533C125.726 76.3344 125.937 76.5629 126.098 76.8259C126.259 77.0889 126.367 77.3812 126.415 77.6858C126.463 77.9905 126.45 78.3017 126.377 78.6014C126.305 78.9011 126.174 79.1836 125.991 79.4325L122.876 83.7188C122.7 83.9783 122.473 84.1996 122.21 84.3698C121.946 84.54 121.651 84.6556 121.342 84.7096C121.034 84.7636 120.717 84.755 120.411 84.6844C120.106 84.6137 119.817 84.4823 119.563 84.2981C119.31 84.1139 119.095 83.8806 118.933 83.612C118.771 83.3434 118.665 83.045 118.62 82.7345C118.576 82.424 118.594 82.1077 118.674 81.8045C118.754 81.5012 118.895 81.2171 119.087 80.969L122.206 76.6733C122.572 76.1717 123.122 75.8357 123.735 75.7391C124.348 75.6425 124.974 75.7931 125.476 76.158V76.1533ZM84.6932 76.6733L87.813 80.969C88.1777 81.4722 88.3275 82.0996 88.2295 82.7132C88.1316 83.3269 87.7939 83.8765 87.2907 84.2411C86.7875 84.6058 86.1601 84.7556 85.5465 84.6577C84.9328 84.5597 84.3832 84.222 84.0186 83.7188L80.9034 79.4278C80.5382 78.9246 80.3877 78.2969 80.4853 77.6828C80.5828 77.0688 80.9202 76.5186 81.4234 76.1533C81.9266 75.788 82.5542 75.6376 83.1683 75.7351C83.7824 75.8326 84.3326 76.1701 84.6979 76.6733H84.6932ZM103.45 69C104.071 69 104.667 69.2468 105.106 69.686C105.545 70.1253 105.792 70.7211 105.792 71.3423V76.6452C105.792 77.2664 105.545 77.8621 105.106 78.3014C104.667 78.7407 104.071 78.9874 103.45 78.9874C102.829 78.9874 102.233 78.7407 101.794 78.3014C101.354 77.8621 101.108 77.2664 101.108 76.6452V71.3423C101.108 70.7211 101.354 70.1253 101.794 69.686C102.233 69.2468 102.829 69 103.45 69Z" fill="#82F14B"/>
</svg>
