<svg width="44" height="44" viewBox="0 0 44 44" fill="none" xmlns="http://www.w3.org/2000/svg">
<rect width="44" height="44" rx="22" fill="#FFFBF0"/>
<path d="M21.9969 12.2194C20.063 12.2194 18.1726 12.7928 16.5646 13.8672C14.9567 14.9416 13.7034 16.4687 12.9634 18.2553C12.2233 20.042 12.0297 22.008 12.407 23.9047C12.7842 25.8014 13.7155 27.5436 15.0829 28.9111C16.4504 30.2785 18.1926 31.2098 20.0893 31.587C21.986 31.9643 23.952 31.7707 25.7387 31.0306C27.5253 30.2906 29.0524 29.0373 30.1268 27.4294C31.2012 25.8214 31.7746 23.931 31.7746 21.9971C31.7746 19.4039 30.7445 16.9169 28.9108 15.0832C27.0771 13.2495 24.5901 12.2194 21.9969 12.2194ZM26.0946 26.0949C25.9696 26.2198 25.8002 26.2899 25.6235 26.2899C25.4469 26.2899 25.2774 26.2198 25.1524 26.0949L21.9969 22.9394L18.8413 26.0949C18.7163 26.2198 18.5469 26.2899 18.3702 26.2899C18.1935 26.2899 18.0241 26.2198 17.8991 26.0949C17.7742 25.9699 17.7041 25.8005 17.7041 25.6238C17.7041 25.4471 17.7742 25.2777 17.8991 25.1527L21.0546 21.9971L17.8991 18.8416C17.7742 18.7166 17.7041 18.5471 17.7041 18.3705C17.7041 18.1938 17.7742 18.0244 17.8991 17.8994C18.0241 17.7745 18.1935 17.7044 18.3702 17.7044C18.5469 17.7044 18.7163 17.7745 18.8413 17.8994L21.9969 21.0549L25.1524 17.8994C25.2774 17.7745 25.4469 17.7044 25.6235 17.7044C25.8002 17.7044 25.9696 17.7745 26.0946 17.8994C26.2195 18.0244 26.2896 18.1938 26.2896 18.3705C26.2896 18.5471 26.2195 18.7166 26.0946 18.8416L22.9391 21.9971L26.0946 25.1527C26.2195 25.2777 26.2896 25.4471 26.2896 25.6238C26.2896 25.8005 26.2195 25.9699 26.0946 26.0949Z" fill="#FF5900"/>
</svg>
