<svg width="44" height="44" viewBox="0 0 44 44" fill="none" xmlns="http://www.w3.org/2000/svg">
<rect width="44" height="44" rx="22" fill="#F0FBFF"/>
<path d="M30.9598 13.0358H13.0339C12.5858 13.0358 12.2191 13.4024 12.2191 13.8506V27.7024C12.2191 28.1506 12.5858 28.5172 13.0339 28.5172H30.9598C31.408 28.5172 31.7746 28.1506 31.7746 27.7024V13.8506C31.7746 13.4024 31.408 13.0358 30.9598 13.0358ZM21.7932 23.995C21.6302 24.1172 21.4672 24.1987 21.2635 24.1987C21.0598 24.1987 20.8561 24.1172 20.6932 23.9543L17.5561 20.858L18.6969 19.7172L21.3043 22.3247L26.1524 18.3321L27.2117 19.595L21.7932 23.995ZM28.108 29.3321H15.8858V30.9617H28.108V29.3321Z" fill="#00B5FF"/>
</svg>
