<?xml version="1.0" encoding="UTF-8"?>
<svg version="1.1" xmlns="http://www.w3.org/2000/svg" width="200" height="200">
<path d="M0 0 C3.12578143 1.6720747 5.39281175 3.7856235 7 7 C7.12114921 8.64255791 7.17540767 10.29052478 7.1875 11.9375 C7.20167969 12.81277344 7.21585937 13.68804687 7.23046875 14.58984375 C7 17 7 17 5 20 C5.32958763 25.41187026 6.93189701 30.0245464 8.89453125 35.0078125 C9.19365921 35.78545456 9.49278717 36.56309662 9.80097961 37.36430359 C10.45391083 39.05941967 11.11016438 40.75325893 11.76934814 42.44595337 C13.21043559 46.14698735 14.63515051 49.85426037 16.06103516 53.56117249 C16.8291027 55.55752822 17.59800243 57.55356396 18.36767578 59.54930115 C23.88309882 73.85965853 29.27219739 88.2180775 34.66577148 102.57470703 C38.53952387 112.87816421 42.43903529 123.16827914 46.453125 133.41796875 C47.44875255 135.97815176 48.44310477 138.53882584 49.43695068 141.09970093 C50.05592683 142.68354928 50.68101045 144.26502611 51.31256104 145.84390259 C52.1686665 147.98416624 53.0043183 150.13137943 53.8359375 152.28125 C54.30563965 153.46783203 54.7753418 154.65441406 55.25927734 155.87695312 C56.10031142 159.42293462 55.71944627 160.8495307 54 164 C52.02 164 50.04 164 48 164 C45.13952659 158.47632722 42.71360152 152.9520411 40.546875 147.125 C40.24179016 146.31506592 39.93670532 145.50513184 39.62237549 144.6706543 C38.66086489 142.11526995 37.70533706 139.55769786 36.75 137 C36.09414638 135.25375733 35.43789999 133.50766212 34.78125 131.76171875 C33.18295833 127.50950225 31.59002352 123.25531474 30 119 C14.73819533 122.38322797 -0.32229586 126.52487149 -15.40087891 130.63336182 C-18.146114 131.38030468 -20.89236036 132.12349155 -23.63860989 132.86669445 C-26.92502836 133.75661588 -30.21053071 134.64989413 -33.49609375 135.54296875 C-34.72299423 135.87523972 -35.94989471 136.20751068 -37.213974 136.54985046 C-38.34017654 136.8571962 -39.46637909 137.16454193 -40.62670898 137.48120117 C-41.61912094 137.75115402 -42.6115329 138.02110687 -43.63401794 138.29924011 C-45.9894895 138.92191341 -45.9894895 138.92191341 -48 140 C-49.1119217 142.29387694 -49.1119217 142.29387694 -50.12890625 145.09375 C-50.72155273 146.63869141 -50.72155273 146.63869141 -51.32617188 148.21484375 C-51.73416016 149.29894531 -52.14214844 150.38304687 -52.5625 151.5 C-53.37407687 153.63626336 -54.18776484 155.77172631 -55.00390625 157.90625 C-55.36299072 158.85822266 -55.7220752 159.81019531 -56.09204102 160.79101562 C-57 163 -57 163 -58 164 C-59.99958364 164.04080783 -62.00045254 164.04254356 -64 164 C-65.56065942 161.01908317 -66.10785393 159.51006516 -65.40148926 156.16950989 C-65.00151733 155.12977524 -64.60154541 154.09004059 -64.18945312 153.01879883 C-63.51377541 151.22498276 -63.51377541 151.22498276 -62.82444763 149.39492798 C-62.31034508 148.08217952 -61.7959361 146.76955103 -61.28125 145.45703125 C-60.75367539 144.07514551 -60.22763273 142.69267407 -59.70301819 141.30966187 C-58.28292154 137.57829685 -56.84232121 133.8551563 -55.39799881 130.13311386 C-53.89869348 126.25860012 -52.41870015 122.37673131 -50.93725586 118.49536133 C-48.50466006 112.12790612 -46.06201346 105.76439784 -43.61279297 99.40332031 C-40.20442841 90.54779115 -36.83121569 81.67921018 -33.47265625 72.8046875 C-33.21837734 72.132899 -32.96409843 71.4611105 -32.70211411 70.76896477 C-31.70553601 68.13588228 -30.70909331 65.50274867 -29.71299934 62.86948299 C-26.82636059 55.2391246 -23.92828616 47.61310962 -21.03004456 39.9871521 C-20.3331458 38.15261241 -19.63787103 36.31745455 -18.9446106 34.48153687 C-18.32896375 32.86420339 -17.70318975 31.25067751 -17.06588745 29.64175415 C-15.497417 25.63956961 -14.53035549 23.16399279 -16 19 C-16.495 18.01 -16.495 18.01 -17 17 C-17.51512617 12.90842645 -17.94367269 8.76410454 -15.953125 5.04296875 C-11.37288125 -0.49373767 -6.8728078 -0.96829758 0 0 Z M-6 26 C-6.52787109 27.42542114 -6.52787109 27.42542114 -7.06640625 28.87963867 C-13.63605516 46.61519599 -20.21318149 64.34607029 -27 82 C-24.80585221 83.38423699 -24.80585221 83.38423699 -21.46826172 81.92016602 C-19.9525594 81.37255546 -18.43988208 80.81652795 -16.9296875 80.25390625 C-16.13345978 79.96394272 -15.33723206 79.67397919 -14.51687622 79.37522888 C-11.96692255 78.44474914 -9.42099023 77.50376376 -6.875 76.5625 C-5.14999357 75.93094646 -3.42473613 75.30007807 -1.69921875 74.66992188 C2.53681097 73.12122533 6.76926296 71.56309418 11 70 C10.41918233 64.33292586 8.90134393 59.51692357 6.83984375 54.22265625 C6.37584923 53.00563271 6.37584923 53.00563271 5.90248108 51.76402283 C4.92094338 49.19418741 3.92940379 46.6283497 2.9375 44.0625 C2.26691167 42.31210414 1.5969829 40.56145544 0.92773438 38.81054688 C-0.70722806 34.53740185 -2.35116674 30.26781097 -4 26 C-4.66 26 -5.32 26 -6 26 Z M10.65185547 78.98803711 C9.22086333 79.49336408 7.79281224 80.00706697 6.3671875 80.52734375 C5.61535187 80.79511124 4.86351624 81.06287872 4.08889771 81.33876038 C1.68166773 82.19794068 -0.72163288 83.06757986 -3.125 83.9375 C-4.75365879 84.52087361 -6.38256218 85.10356484 -8.01171875 85.68554688 C-12.0106966 87.11578721 -16.00618081 88.55542039 -20 90 C-17.53050558 91.64632961 -15.76410353 92.55694666 -13.03515625 93.52807617 C-12.24423584 93.81144333 -11.45331543 94.09481049 -10.63842773 94.38676453 C-9.78837158 94.68581192 -8.93831543 94.98485931 -8.0625 95.29296875 C-7.18601807 95.60325516 -6.30953613 95.91354156 -5.40649414 96.23323059 C-3.55466971 96.88683205 -1.70202663 97.53811801 0.15136719 98.18725586 C2.99244725 99.18484799 5.82823424 100.196575 8.6640625 101.20898438 C10.46323433 101.84202001 12.26270383 102.47421039 14.0625 103.10546875 C14.91255615 103.41058884 15.7626123 103.71570892 16.63842773 104.03007507 C17.42934814 104.30398575 18.22026855 104.57789642 19.03515625 104.86010742 C20.07748413 105.22745247 20.07748413 105.22745247 21.14086914 105.60221863 C23.21477377 106.21047402 23.21477377 106.21047402 26 105 C24.62144553 101.31208198 23.23374436 97.6277546 21.83740234 93.9465332 C21.13019061 92.0762272 20.43030078 90.20315797 19.73046875 88.33007812 C19.28574219 87.16025391 18.84101562 85.99042969 18.3828125 84.78515625 C17.97434082 83.70113525 17.56586914 82.61711426 17.14501953 81.50024414 C15.38976121 77.66749352 14.69937278 77.79361516 10.65185547 78.98803711 Z M-32 96 C-38.46874562 111.82782904 -38.46874562 111.82782904 -44 128 C-37.11275595 127.35974675 -30.71289109 125.70365775 -24.0625 123.83984375 C-22.94182129 123.53051407 -21.82114258 123.22118439 -20.66650391 122.90248108 C-17.10952696 121.91939458 -13.55476004 120.92856922 -10 119.9375 C-7.57956917 119.26706495 -5.15899766 118.59713757 -2.73828125 117.92773438 C3.17612051 116.29103011 9.08873005 114.64797734 15 113 C12.86948522 110.86948522 11.65517699 110.36903237 8.85742188 109.39599609 C8.00313599 109.09583588 7.1488501 108.79567566 6.26867676 108.48641968 C5.34470093 108.16863556 4.4207251 107.85085144 3.46875 107.5234375 C2.52189331 107.19332672 1.57503662 106.86321594 0.5994873 106.52310181 C-1.4035837 105.82612041 -3.40764196 105.13197085 -5.41259766 104.44042969 C-8.48971303 103.37854992 -11.56340616 102.3072047 -14.63671875 101.234375 C-16.58053397 100.55933349 -18.52453815 99.88483582 -20.46875 99.2109375 C-21.39272583 98.88910492 -22.31670166 98.56727234 -23.26867676 98.23568726 C-24.55010559 97.79490341 -24.55010559 97.79490341 -25.85742188 97.34521484 C-26.61083862 97.08477386 -27.36425537 96.82433289 -28.14050293 96.55599976 C-29.99588916 95.90450881 -29.99588916 95.90450881 -32 96 Z " fill="#000000" transform="translate(105,36)"/>
<path d="M0 0 C2.625 -0.5 2.625 -0.5 6 0 C14.89819867 7.46300534 21.76386239 24.80275347 23 36 C24.36133401 56.74579951 22.05698397 76.45585563 8.875 93.375 C6 96 6 96 3.25 96.5625 C1 96 1 96 -1 94 C-1.42589008 90.92640772 -1.25467462 89.42347912 0.35546875 86.74609375 C0.96003906 85.98425781 1.56460938 85.22242187 2.1875 84.4375 C12.65155628 70.22417658 14.48961816 54.12755634 13 37 C11.35962655 26.8201572 6.91692483 18.37062588 1 10 C-0.76171875 7.375 -0.76171875 7.375 -2 5 C-1.1875 2.1875 -1.1875 2.1875 0 0 Z " fill="#000000" transform="translate(157,0)"/>
<path d="M0 0 C2.75 0.4375 2.75 0.4375 3.75 1.4375 C4.40379439 6.80964186 2.62678742 9.64714455 -0.4375 13.8125 C-10.55942245 28.7595968 -12.75155772 45.58809384 -9.55078125 63.30859375 C-7.1882987 71.61217165 -3.53916076 80.3705774 1.9140625 87.11328125 C3.75 89.4375 3.75 89.4375 4.125 92.125 C3.75 94.4375 3.75 94.4375 1.75 96.4375 C-0.66015625 96.796875 -0.66015625 96.796875 -3.25 96.4375 C-13.58740364 87.59600574 -19.39719319 70.82490656 -20.47753906 57.66601562 C-21.52088821 37.54709425 -18.39971576 19.24744726 -5.69921875 3.03125 C-3.25 0.4375 -3.25 0.4375 0 0 Z " fill="#000000" transform="translate(40.25,-0.4375)"/>
<path d="M0 0 C3.79583476 0.67481507 4.99309547 2.2713494 7.328125 5.23828125 C16.17954022 18.72504287 17.95924025 34.48082555 15.16015625 50.15234375 C12.79372422 57.8813342 8.66814545 66.9295697 1.8125 71.5 C-0.875 71.125 -0.875 71.125 -3.1875 70.5 C-4.0625 68.0625 -4.0625 68.0625 -4.1875 64.5 C-3.05859375 62.484375 -3.05859375 62.484375 -1.5 60.3125 C5.87577614 49.92795737 7.41501319 38.97550914 5.8125 26.5 C4.22840067 20.1830793 1.89819067 14.68107155 -2.0625 9.5 C-4.1875 6.5 -4.1875 6.5 -4.0625 3.625 C-2.83685065 0.64842301 -2.83685065 0.64842301 0 0 Z " fill="#000000" transform="translate(136.1875,12.5)"/>
<path d="M0 0 C0.804375 0.12375 1.60875 0.2475 2.4375 0.375 C4.4375 3.375 4.4375 3.375 4.2421875 5.796875 C3.38111802 8.5556413 2.28225592 10.31488011 0.5625 12.625 C-6.15570823 22.52466741 -6.74038817 32.65868507 -5.5625 44.375 C-4.08141435 51.42898418 -0.84112184 56.57681393 3.30859375 62.359375 C4.4375 64.375 4.4375 64.375 4.3125 67.9375 C4.02375 68.741875 3.735 69.54625 3.4375 70.375 C1.25 71.1875 1.25 71.1875 -1.5625 71.375 C-9.37528213 65.56549534 -13.50580207 55.62257927 -15.5625 46.375 C-15.96727836 42.90317136 -16.04073224 39.49295108 -16 36 C-15.99242676 35.0824292 -15.98485352 34.1648584 -15.97705078 33.21948242 C-15.69106068 21.40934382 -11.87543136 10.64296457 -4.0390625 1.62109375 C-2.5625 0.375 -2.5625 0.375 0 0 Z " fill="#000000" transform="translate(63.5625,12.625)"/>
</svg>
