<svg width="44" height="44" viewBox="0 0 44 44" fill="none" xmlns="http://www.w3.org/2000/svg">
<rect width="44" height="44" rx="22" fill="#EBF7FE"/>
<path d="M20.8278 20.4821L12.7139 25.2601C12.3868 24.2603 12.2209 23.2148 12.2222 22.1628C12.2222 17.1052 15.9955 12.9468 20.8278 12.4573V20.4821ZM21.3706 22.4148L29.6341 27.7336C27.9062 30.2624 25.0353 31.9176 21.7834 31.9176C18.2478 31.9176 15.1597 29.9592 13.5056 27.0474L21.3706 22.4148ZM22.3692 16.1834L27.686 13.1066L28.7051 14.8765L23.3883 17.9533L22.3692 16.1834ZM22.0927 13.1076L23.8636 12.0824L24.8847 13.8553L23.1138 14.8806L22.0927 13.1076ZM28.2381 24.3741L30.0089 23.3489L31.0301 25.1218L29.2592 26.1471L28.2381 24.3741ZM22.5075 19.7702L29.5972 15.6672L30.6153 17.435L23.5256 21.5381L22.5075 19.7702ZM25.4419 22.3288L30.7587 19.252L31.7778 21.0218L26.461 24.0986L25.4419 22.3288Z" fill="#0083FF"/>
</svg>
