<svg width="462" height="568" viewBox="0 0 462 568" fill="none" xmlns="http://www.w3.org/2000/svg">
<path d="M62.9962 7.00015C28.0629 48.2857 7 101.683 7 160C7 218.317 28.0629 271.715 62.9962 313" stroke="#99CEFF" stroke-width="14" stroke-linecap="round"/>
<path d="M399 7.00015C433.933 48.2857 454.996 101.683 454.996 160C454.996 218.317 433.933 271.715 399 313" stroke="#99CEFF" stroke-width="14" stroke-linecap="round"/>
<path d="M122.848 66.5002C102.382 92.1415 90.1484 124.642 90.1484 160C90.1484 195.358 102.382 227.859 122.848 253.5" stroke="#0083FF" stroke-width="14" stroke-linecap="round"/>
<path d="M339.148 66.5002C359.614 92.1415 371.848 124.642 371.848 160C371.848 195.358 359.614 227.859 339.148 253.5" stroke="#0083FF" stroke-width="14" stroke-linecap="round"/>
<circle cx="229" cy="173" r="45" fill="#0083FF"/>
<path d="M121 558.5L152.377 446.5M340 558.5L307.751 446.5M152.377 446.5L229 173L307.751 446.5M152.377 446.5H307.751" stroke="#0083FF" stroke-width="18" stroke-linecap="round"/>
</svg>
