<?xml version="1.0" standalone="no"?><!DOCTYPE svg PUBLIC "-//W3C//DTD SVG 1.1//EN" "http://www.w3.org/Graphics/SVG/1.1/DTD/svg11.dtd"><svg class="icon" width="200px" height="200.00px" viewBox="0 0 1024 1024" version="1.1" xmlns="http://www.w3.org/2000/svg"><path fill="#0083FF" d="M149.333333 278.613333m32 0l661.333334 0q32 0 32 32l0 0q0 32-32 32l-661.333334 0q-32 0-32-32l0 0q0-32 32-32ZM394.444637 493.032804m22.627417-22.627417l0 0q22.627417-22.627417 45.254834 0l165.934391 165.934392q22.627417 22.627417 0 45.254834l0 0q-22.627417 22.627417-45.254834 0l-165.934391-165.934392q-22.627417-22.627417 0-45.254834ZM650.885192 493.031353m-22.627417-22.627417l0 0q-22.627417-22.627417-45.254834 0l-165.934391 165.934391q-22.627417 22.627417 0 45.254834l0 0q22.627417 22.627417 45.254834 0l165.934391-165.934391q22.627417-22.627417 0-45.254834ZM746.666667 384v373.333333a53.333333 53.333333 0 0 1-53.333334 53.333334h-362.666666a53.333333 53.333333 0 0 1-53.333334-53.333334V384a32 32 0 0 0-64 0v384a106.666667 106.666667 0 0 0 106.666667 106.666667h384a106.666667 106.666667 0 0 0 106.666667-106.666667V384a32 32 0 0 0-64 0zM384 316.586667V266.666667a53.333333 53.333333 0 0 1 53.76-53.333334h149.333333A53.333333 53.333333 0 0 1 640 266.666667v49.92h64V256a106.666667 106.666667 0 0 0-106.666667-106.666667h-170.666666a106.666667 106.666667 0 0 0-106.666667 106.666667v60.586667h64z" /></svg>